<svg width="74" height="74" viewBox="0 0 74 74" fill="none" xmlns="http://www.w3.org/2000/svg">
<g clip-path="url(#clip0_1137_14137)">
<path d="M44.8936 8.44923H20.042C18.3962 8.44649 16.7984 9.00264 15.51 10.0266C14.2216 11.0506 13.3191 12.4817 12.9503 14.0856L9.75596 15.4546C7.98404 16.2146 6.58616 17.6467 5.86931 19.4365C5.15246 21.2264 5.17523 23.2275 5.93263 25.0006L12.7653 41.0339V53.9716C12.7653 55.9015 13.5319 57.7523 14.8966 59.1169C16.2612 60.4816 18.1121 61.2482 20.042 61.2482H44.8936C46.6836 61.2436 48.4091 60.5794 49.7402 59.3826C51.0712 58.1858 51.9145 56.5403 52.1086 54.7609C52.1274 54.4981 52.1274 54.2343 52.1086 53.9716V15.7382C52.1152 13.8159 51.3595 11.9693 50.0071 10.603C48.6548 9.23676 46.816 8.46227 44.8936 8.44923ZM12.827 36.5816L7.52363 24.3222C6.94693 22.9711 6.92948 21.4464 7.47508 20.0823C8.02069 18.7183 9.08485 17.6263 10.4343 17.0456L12.7653 16.0342L12.827 36.5816ZM50.493 53.9716C50.4903 54.5184 50.4115 55.0622 50.2586 55.5872C49.9126 56.7245 49.2105 57.7206 48.2557 58.4289C47.301 59.1372 46.1441 59.5202 44.9553 59.5216H20.042C18.571 59.5183 17.1612 58.9325 16.1211 57.8924C15.081 56.8523 14.4952 55.4425 14.492 53.9716V15.7382C14.492 15.6026 14.492 15.4669 14.492 15.3312C14.5514 14.5833 14.7567 13.8543 15.0963 13.1852C15.5695 12.2862 16.2789 11.5332 17.1482 11.0073C18.0175 10.4814 19.0137 10.2025 20.0296 10.2006H44.8936C46.3623 10.2006 47.7708 10.784 48.8094 11.8225C49.8479 12.861 50.4313 14.2695 50.4313 15.7382L50.493 53.9716Z" fill="black"/>
<path d="M16.5881 65.5513C22.8683 65.5513 27.9595 60.4601 27.9595 54.1799C27.9595 47.8997 22.8683 42.8086 16.5881 42.8086C10.3079 42.8086 5.2168 47.8997 5.2168 54.1799C5.2168 60.4601 10.3079 65.5513 16.5881 65.5513Z" fill="black"/>
<path d="M11.4824 53.8218L15.5524 57.5465L21.6944 50.8125" fill="black"/>
<path d="M15.5892 58.4108L11.0998 54.2668C11.0399 54.2118 10.9914 54.1454 10.9571 54.0716C10.9228 53.9978 10.9034 53.918 10.9 53.8367C10.893 53.6725 10.9516 53.5122 11.0628 53.3912C11.174 53.2702 11.3288 53.1983 11.493 53.1913C11.6572 53.1844 11.8175 53.243 11.9385 53.3542L15.5028 56.7335L21.2378 50.4558C21.2951 50.398 21.3634 50.3522 21.4385 50.3209C21.5136 50.2896 21.5942 50.2734 21.6757 50.2734C21.7571 50.2734 21.8377 50.2896 21.9128 50.3209C21.988 50.3522 22.0562 50.398 22.1135 50.4558C22.1709 50.5121 22.2165 50.5793 22.2477 50.6534C22.2788 50.7275 22.2949 50.8071 22.2949 50.8875C22.2949 50.9679 22.2788 51.0475 22.2477 51.1216C22.2165 51.1957 22.1709 51.2629 22.1135 51.3192L15.5892 58.4108Z" fill="white"/>
<path d="M44.671 18.747H18.6723C18.5098 18.7438 18.3547 18.6779 18.2398 18.5629C18.1248 18.4479 18.0588 18.2929 18.0557 18.1303C18.0557 17.9668 18.1206 17.8099 18.2363 17.6943C18.3519 17.5786 18.5088 17.5137 18.6723 17.5137H44.671C44.8346 17.5137 44.9914 17.5786 45.107 17.6943C45.2227 17.8099 45.2877 17.9668 45.2877 18.1303C45.2877 18.2939 45.2227 18.4507 45.107 18.5664C44.9914 18.682 44.8346 18.747 44.671 18.747Z" fill="black"/>
<path d="M44.671 22.8036H18.6723C18.5088 22.8036 18.3519 22.7387 18.2363 22.623C18.1206 22.5074 18.0557 22.3505 18.0557 22.187C18.0588 22.0244 18.1248 21.8694 18.2398 21.7544C18.3547 21.6395 18.5098 21.5735 18.6723 21.5703H44.671C44.8346 21.5703 44.9914 21.6353 45.107 21.7509C45.2227 21.8666 45.2877 22.0234 45.2877 22.187C45.2877 22.3505 45.2227 22.5074 45.107 22.623C44.9914 22.7387 44.8346 22.8036 44.671 22.8036Z" fill="black"/>
<path d="M44.671 27.454H33.645C33.4824 27.4509 33.3274 27.3849 33.2124 27.2699C33.0975 27.155 33.0315 26.9999 33.0283 26.8374C33.0283 26.6738 33.0933 26.517 33.2089 26.4013C33.3246 26.2857 33.4814 26.2207 33.645 26.2207H44.671C44.8345 26.2207 44.9914 26.2857 45.107 26.4013C45.2227 26.517 45.2877 26.6738 45.2877 26.8374C45.2877 27.0009 45.2227 27.1578 45.107 27.2734C44.9914 27.3891 44.8345 27.454 44.671 27.454Z" fill="black"/>
<path d="M40.601 53.2915C39.6303 53.2166 38.7033 52.8561 37.937 52.2555C36.9997 51.6141 36.161 51.5031 35.162 52.9585C35.1159 53.0257 35.0569 53.0831 34.9886 53.1276C34.9202 53.172 34.8437 53.2025 34.7636 53.2174C34.6834 53.2323 34.6011 53.2313 34.5213 53.2144C34.4416 53.1974 34.3659 53.165 34.2987 53.1188C34.2315 53.0726 34.174 53.0137 34.1296 52.9453C34.0852 52.877 34.0546 52.8005 34.0397 52.7203C34.0248 52.6402 34.0259 52.5579 34.0428 52.4781C34.0597 52.3983 34.0922 52.3227 34.1384 52.2555C35.7047 49.9738 37.4437 50.4425 38.6277 51.2195C39.8117 51.9965 40.786 52.4528 42.0687 51.4168C42.8366 50.8689 43.4727 50.1569 43.931 49.3325C43.9867 49.1788 44.1011 49.0535 44.2491 48.9841C44.3971 48.9147 44.5666 48.9069 44.7204 48.9625C44.8721 49.0208 44.9953 49.1355 45.0643 49.2826C45.1333 49.4298 45.1426 49.5979 45.0904 49.7518C44.5664 50.8103 43.7968 51.7279 42.8457 52.4281C42.2234 52.9727 41.4279 53.2787 40.601 53.2915Z" fill="black"/>
<path d="M47.8413 46.8799C52.7933 46.8799 56.8077 42.8656 56.8077 37.9136C56.8077 32.9616 52.7933 28.9473 47.8413 28.9473C42.8894 28.9473 38.875 32.9616 38.875 37.9136C38.875 42.8656 42.8894 46.8799 47.8413 46.8799Z" fill="white"/>
<path d="M47.8408 47.4961C45.9455 47.4961 44.0927 46.934 42.5168 45.8811C40.9409 44.8281 39.7126 43.3314 38.9873 41.5803C38.262 39.8293 38.0722 37.9025 38.442 36.0435C38.8117 34.1846 39.7244 32.4771 41.0646 31.1369C42.4048 29.7967 44.1123 28.884 45.9713 28.5142C47.8302 28.1445 49.757 28.3342 51.5081 29.0595C53.2591 29.7849 54.7558 31.0131 55.8088 32.5891C56.8618 34.165 57.4238 36.0177 57.4238 37.9131C57.4173 40.4526 56.4056 42.8863 54.6098 44.6821C52.8141 46.4778 50.3804 47.4896 47.8408 47.4961ZM47.8408 29.5634C46.1894 29.5634 44.5751 30.0531 43.202 30.9706C41.8289 31.8881 40.7587 33.1921 40.1267 34.7178C39.4948 36.2435 39.3294 37.9223 39.6516 39.542C39.9738 41.1617 40.769 42.6495 41.9367 43.8172C43.1044 44.9849 44.5922 45.7801 46.2119 46.1023C47.8316 46.4245 49.5104 46.2591 51.0361 45.6272C52.5618 44.9952 53.8658 43.925 54.7833 42.5519C55.7008 41.1788 56.1905 39.5645 56.1905 37.9131C56.1775 35.706 55.2924 33.5936 53.7283 32.0365C52.1642 30.4793 50.0479 29.6036 47.8408 29.6004V29.5634Z" fill="black"/>
<path d="M65.1813 58.5349C64.7069 58.535 64.2371 58.4413 63.799 58.2593C63.3609 58.0773 62.963 57.8105 62.6283 57.4742L57.1277 51.9736C56.7924 51.6391 56.5263 51.2419 56.3445 50.8046C56.1628 50.3673 56.0689 49.8985 56.0684 49.4249C56.0678 48.9514 56.1605 48.4823 56.3412 48.0446C56.5219 47.6069 56.787 47.209 57.1215 46.8737C57.4559 46.5385 57.8532 46.2724 58.2905 46.0906C58.7278 45.9089 59.1966 45.815 59.6701 45.8145C60.1437 45.8139 60.6127 45.9066 61.0505 46.0873C61.4882 46.268 61.8861 46.5331 62.2213 46.8676L67.722 52.3682C68.058 52.7018 68.3246 53.0986 68.5066 53.5357C68.6886 53.9728 68.7822 54.4416 68.7822 54.9151C68.7822 55.3885 68.6886 55.8573 68.5066 56.2944C68.3246 56.7315 68.058 57.1283 67.722 57.4619C67.3906 57.8 66.9954 58.069 66.5592 58.2531C66.1231 58.4373 65.6547 58.5331 65.1813 58.5349ZM59.6807 47.0526C59.2083 47.044 58.7442 47.1768 58.3479 47.4341C57.9517 47.6913 57.6415 48.0612 57.4571 48.4962C57.2728 48.9312 57.2228 49.4114 57.3135 49.875C57.4043 50.3386 57.6316 50.7645 57.9663 51.0979L63.467 56.5986C63.9231 57.0216 64.5222 57.2567 65.1443 57.2567C65.7664 57.2567 66.3655 57.0216 66.8217 56.5986C67.0425 56.3789 67.2173 56.1175 67.3359 55.8295C67.4545 55.5415 67.5144 55.2327 67.5123 54.9212C67.5112 54.2932 67.2631 53.6907 66.8217 53.2439L61.321 47.7432C60.8792 47.3169 60.2943 47.0706 59.6807 47.0526Z" fill="black"/>
<path d="M54.7696 43.6318L53.8975 44.5039L57.4469 48.0533L58.319 47.1812L54.7696 43.6318Z" fill="black"/>
</g>
<defs>
<clipPath id="clip0_1137_14137">
<rect width="74" height="74" fill="white"/>
</clipPath>
</defs>
</svg>
