<svg width="74" height="74" viewBox="0 0 74 74" fill="none" xmlns="http://www.w3.org/2000/svg">
<g clip-path="url(#clip0_1137_14153)">
<path d="M51.9479 21.1516C53.2965 21.1516 54.3899 20.0583 54.3899 18.7096C54.3899 17.3609 53.2965 16.2676 51.9479 16.2676C50.5992 16.2676 49.5059 17.3609 49.5059 18.7096C49.5059 20.0583 50.5992 21.1516 51.9479 21.1516Z" fill="black"/>
<path d="M53.8595 22.0762H50.0486C49.3519 22.0739 48.6776 22.3216 48.148 22.7742C47.6185 23.2268 47.2688 23.8544 47.1626 24.5429L46.5952 27.9469H57.3129L56.7332 24.5182C56.622 23.8363 56.2718 23.2163 55.7453 22.7689C55.2189 22.3215 54.5504 22.076 53.8595 22.0762Z" fill="black"/>
<path d="M51.9481 11.4825C53.341 11.4825 54.7202 11.7569 56.0071 12.2899C57.2939 12.8229 58.4632 13.6042 59.4481 14.5891C60.433 15.5741 61.2143 16.7433 61.7474 18.0302C62.2804 19.3171 62.5547 20.6963 62.5547 22.0892C62.5547 23.4821 62.2804 24.8613 61.7474 26.1482C61.2143 27.435 60.433 28.6043 59.4481 29.5892C58.4632 30.5742 57.2939 31.3554 56.0071 31.8885C54.7202 32.4215 53.341 32.6959 51.9481 32.6959H41.3414V22.0892C41.3447 19.2771 42.4632 16.5812 44.4516 14.5928C46.4401 12.6043 49.136 11.4858 51.9481 11.4825ZM51.9481 9.75586C48.6771 9.75586 45.54 11.0553 43.2271 13.3682C40.9141 15.6812 39.6147 18.8182 39.6147 22.0892V34.4225H51.9481C55.2191 34.4225 58.3561 33.1231 60.6691 30.8102C62.982 28.4972 64.2814 25.3602 64.2814 22.0892C64.2814 18.8182 62.982 15.6812 60.6691 13.3682C58.3561 11.0553 55.2191 9.75586 51.9481 9.75586Z" fill="black"/>
<path d="M22.0768 50.9992C23.4254 50.9992 24.5188 49.9059 24.5188 48.5572C24.5188 47.2086 23.4254 46.1152 22.0768 46.1152C20.7281 46.1152 19.6348 47.2086 19.6348 48.5572C19.6348 49.9059 20.7281 50.9992 22.0768 50.9992Z" fill="black"/>
<path d="M23.9885 51.9238H20.1775C19.4808 51.9216 18.8065 52.1693 18.2769 52.6219C17.7474 53.0745 17.3977 53.702 17.2915 54.3905L16.7241 57.7945H27.4418L26.8745 54.3905C26.7682 53.702 26.4185 53.0745 25.889 52.6219C25.3594 52.1693 24.6851 51.9216 23.9885 51.9238Z" fill="black"/>
<path d="M32.6832 41.3282V51.9349C32.6832 54.0327 32.0611 56.0834 30.8956 57.8276C29.7301 59.5719 28.0736 60.9314 26.1355 61.7342C24.1974 62.537 22.0647 62.747 20.0072 62.3378C17.9498 61.9285 16.0598 60.9183 14.5765 59.4349C13.0931 57.9516 12.0829 56.0616 11.6736 54.0042C11.2644 51.9467 11.4744 49.814 12.2772 47.8759C13.08 45.9378 14.4395 44.2813 16.1838 43.1158C17.928 41.9503 19.9787 41.3282 22.0765 41.3282H32.6832ZM34.4098 39.6016H22.0765C19.6372 39.6016 17.2527 40.3249 15.2245 41.6801C13.1963 43.0353 11.6155 44.9615 10.682 47.2151C9.74851 49.4688 9.50427 51.9486 9.98015 54.341C10.456 56.7334 11.6307 58.931 13.3555 60.6559C15.0804 62.3807 17.278 63.5554 19.6704 64.0312C22.0628 64.5071 24.5426 64.2629 26.7963 63.3294C29.0499 62.3959 30.9761 60.8151 32.3313 58.7869C33.6865 56.7587 34.4098 54.3742 34.4098 51.9349V39.6016Z" fill="black"/>
<path d="M51.9112 50.9992C53.2599 50.9992 54.3532 49.9059 54.3532 48.5572C54.3532 47.2086 53.2599 46.1152 51.9112 46.1152C50.5626 46.1152 49.4692 47.2086 49.4692 48.5572C49.4692 49.9059 50.5626 50.9992 51.9112 50.9992Z" fill="black"/>
<path d="M53.8102 51.9243H49.9992C49.3026 51.922 48.6283 52.1697 48.0987 52.6223C47.5692 53.0749 47.2195 53.7025 47.1132 54.3909L46.5459 57.7949H57.2636L56.7332 54.3663C56.6207 53.6759 56.2634 53.0492 55.7266 52.6008C55.1899 52.1523 54.5096 51.9122 53.8102 51.9243Z" fill="black"/>
<path d="M51.911 41.3282C54.0088 41.3282 56.0595 41.9503 57.8037 43.1158C59.548 44.2813 60.9075 45.9378 61.7103 47.8759C62.513 49.814 62.7231 51.9467 62.3138 54.0042C61.9046 56.0616 60.8944 57.9516 59.411 59.4349C57.9276 60.9183 56.0377 61.9285 53.9802 62.3378C51.9227 62.747 49.7901 62.537 47.852 61.7342C45.9139 60.9314 44.2573 59.5719 43.0918 57.8276C41.9264 56.0834 41.3043 54.0327 41.3043 51.9349V41.3282H51.911ZM51.911 39.6016H39.5776V51.9349C39.5776 54.3742 40.301 56.7587 41.6562 58.7869C43.0114 60.8151 44.9376 62.3959 47.1912 63.3294C49.4448 64.2629 51.9247 64.5071 54.3171 64.0312C56.7095 63.5554 58.9071 62.3807 60.632 60.6559C62.3568 58.931 63.5314 56.7334 64.0073 54.341C64.4832 51.9486 64.239 49.4688 63.3055 47.2151C62.372 44.9615 60.7912 43.0353 58.763 41.6801C56.7348 40.3249 54.3503 39.6016 51.911 39.6016Z" fill="black"/>
<path d="M34.3854 22.0638V34.3971H22.0521C19.6128 34.3971 17.2283 33.6738 15.2001 32.3186C13.1718 30.9634 11.5911 29.0372 10.6576 26.7836C9.72409 24.5299 9.47985 22.0501 9.95574 19.6577C10.4316 17.2653 11.6063 15.0677 13.3311 13.3428C15.056 11.618 17.2535 10.4433 19.646 9.96746C22.0384 9.49157 24.5182 9.73581 26.7719 10.6693C29.0255 11.6028 30.9517 13.1836 32.3069 15.2118C33.6621 17.24 34.3854 19.6245 34.3854 22.0638Z" fill="black"/>
<path d="M17.4394 23.3104C18.1205 23.3104 18.6727 22.7582 18.6727 22.0771C18.6727 21.3959 18.1205 20.8438 17.4394 20.8438C16.7582 20.8438 16.2061 21.3959 16.2061 22.0771C16.2061 22.7582 16.7582 23.3104 17.4394 23.3104Z" fill="white"/>
<path d="M22.0644 23.3104C22.7455 23.3104 23.2977 22.7582 23.2977 22.0771C23.2977 21.3959 22.7455 20.8438 22.0644 20.8438C21.3832 20.8438 20.8311 21.3959 20.8311 22.0771C20.8311 22.7582 21.3832 23.3104 22.0644 23.3104Z" fill="white"/>
<path d="M26.6772 23.3104C27.3583 23.3104 27.9105 22.7582 27.9105 22.0771C27.9105 21.3959 27.3583 20.8438 26.6772 20.8438C25.996 20.8438 25.4438 21.3959 25.4438 22.0771C25.4438 22.7582 25.996 23.3104 26.6772 23.3104Z" fill="white"/>
</g>
<defs>
<clipPath id="clip0_1137_14153">
<rect width="74" height="74" fill="white"/>
</clipPath>
</defs>
</svg>
