<svg width="74" height="74" viewBox="0 0 74 74" fill="none" xmlns="http://www.w3.org/2000/svg">
<g clip-path="url(#clip0_1137_14117)">
<path d="M64.2815 55.1055H32.2148V56.8321H64.2815V55.1055Z" fill="black"/>
<path d="M57.8186 61.6661H46.1143C45.8853 61.6661 45.6657 61.5752 45.5038 61.4133C45.3419 61.2514 45.251 61.0318 45.251 60.8028C45.251 60.5738 45.3419 60.3542 45.5038 60.1923C45.6657 60.0304 45.8853 59.9395 46.1143 59.9395H57.8186C58.0476 59.9395 58.2672 60.0304 58.4291 60.1923C58.591 60.3542 58.682 60.5738 58.682 60.8028C58.682 61.0318 58.591 61.2514 58.4291 61.4133C58.2672 61.5752 58.0476 61.6661 57.8186 61.6661Z" fill="black"/>
<path d="M43.0557 61.6661H39.1954C38.9664 61.6661 38.7468 61.5752 38.5849 61.4133C38.423 61.2514 38.332 61.0318 38.332 60.8028C38.332 60.5738 38.423 60.3542 38.5849 60.1923C38.7468 60.0304 38.9664 59.9395 39.1954 59.9395H43.0557C43.2847 59.9395 43.5043 60.0304 43.6662 60.1923C43.8281 60.3542 43.919 60.5738 43.919 60.8028C43.919 61.0318 43.8281 61.2514 43.6662 61.4133C43.5043 61.5752 43.2847 61.6661 43.0557 61.6661Z" fill="black"/>
<path d="M48.2484 37.9618C48.6143 37.9618 48.9719 38.0703 49.2762 38.2736C49.5804 38.4769 49.8175 38.7658 49.9575 39.1039C50.0976 39.4419 50.1342 39.8139 50.0628 40.1728C49.9914 40.5316 49.8152 40.8613 49.5565 41.12C49.2978 41.3787 48.9682 41.5549 48.6093 41.6263C48.2504 41.6977 47.8785 41.661 47.5404 41.521C47.2024 41.381 46.9134 41.1439 46.7102 40.8397C46.5069 40.5354 46.3984 40.1777 46.3984 39.8118C46.3984 39.3212 46.5933 38.8506 46.9402 38.5037C47.2872 38.1568 47.7577 37.9618 48.2484 37.9618ZM48.2484 36.7285C47.6385 36.7285 47.0424 36.9093 46.5354 37.2482C46.0283 37.587 45.6331 38.0685 45.3997 38.6319C45.1664 39.1953 45.1053 39.8153 45.2243 40.4134C45.3433 41.0115 45.6369 41.5609 46.0681 41.9921C46.4993 42.4233 47.0487 42.717 47.6468 42.8359C48.245 42.9549 48.8649 42.8938 49.4283 42.6605C49.9917 42.4271 50.4733 42.0319 50.8121 41.5249C51.1509 41.0178 51.3317 40.4217 51.3317 39.8118C51.3317 38.9941 51.0069 38.2098 50.4286 37.6316C49.8504 37.0534 49.0661 36.7285 48.2484 36.7285Z" fill="black"/>
<path d="M50.665 45.3001C51.2545 45.292 51.8273 45.4953 52.2798 45.8731C52.7323 46.2509 53.0345 46.7783 53.1317 47.3597L53.6127 50.2334H42.9197L43.4007 47.3597C43.4979 46.7783 43.8001 46.2509 44.2526 45.8731C44.7051 45.4953 45.2779 45.292 45.8674 45.3001H50.702M50.702 44.0667H45.8304C44.9453 44.0549 44.0853 44.3607 43.4065 44.9286C42.7276 45.4966 42.2749 46.2892 42.1304 47.1624L41.415 51.4667H54.9817L54.2664 47.1624C54.1219 46.2892 53.6691 45.4966 52.9903 44.9286C52.3114 44.3607 51.4514 44.0549 50.5664 44.0667H50.702Z" fill="black"/>
<path d="M32.2148 31.5371V66.0704H64.2815V31.5371H32.2148ZM62.5548 64.3314H33.9415V33.3008H62.5548V64.3314Z" fill="black"/>
<path d="M9.71875 7.92969V42.463H33.9414V40.6994H11.4454V9.65635H40.0588V33.2994H41.7854V7.92969H9.71875Z" fill="black"/>
<path d="M28.835 33.2267H11.0997C10.8707 33.2267 10.6511 33.1357 10.4892 32.9738C10.3273 32.8119 10.2363 32.5923 10.2363 32.3633C10.2363 32.1344 10.3273 31.9148 10.4892 31.7529C10.6511 31.591 10.8707 31.5 11.0997 31.5H28.835C29.064 31.5 29.2836 31.591 29.4455 31.7529C29.6074 31.9148 29.6983 32.1344 29.6983 32.3633C29.6983 32.5923 29.6074 32.8119 29.4455 32.9738C29.2836 33.1357 29.064 33.2267 28.835 33.2267Z" fill="black"/>
<path d="M24.4321 38.0978H13.3321C13.1031 38.0978 12.8835 38.0068 12.7216 37.8449C12.5597 37.683 12.4688 37.4634 12.4688 37.2344C12.4688 37.0055 12.5597 36.7859 12.7216 36.624C12.8835 36.4621 13.1031 36.3711 13.3321 36.3711H24.4321C24.6611 36.3711 24.8806 36.4621 25.0426 36.624C25.2045 36.7859 25.2954 37.0055 25.2954 37.2344C25.2954 37.4634 25.2045 37.683 25.0426 37.8449C24.8806 38.0068 24.6611 38.0978 24.4321 38.0978Z" fill="black"/>
<path d="M32.5476 38.0978H27.6143C27.3853 38.0978 27.1657 38.0068 27.0038 37.8449C26.8419 37.683 26.751 37.4634 26.751 37.2344C26.751 37.0055 26.8419 36.7859 27.0038 36.624C27.1657 36.4621 27.3853 36.3711 27.6143 36.3711H32.5476C32.7766 36.3711 32.9962 36.4621 33.1581 36.624C33.32 36.7859 33.411 37.0055 33.411 37.2344C33.411 37.4634 33.32 37.683 33.1581 37.8449C32.9962 38.0068 32.7766 38.0978 32.5476 38.0978Z" fill="black"/>
<path d="M25.7523 19.2897C27.4552 19.2897 28.8356 17.9093 28.8356 16.2064C28.8356 14.5035 27.4552 13.123 25.7523 13.123C24.0494 13.123 22.6689 14.5035 22.6689 16.2064C22.6689 17.9093 24.0494 19.2897 25.7523 19.2897Z" fill="black"/>
<path d="M28.1689 20.473H23.3343C22.451 20.4607 21.5925 20.7647 20.9139 21.3302C20.2353 21.8957 19.7814 22.6854 19.6343 23.5564L18.9189 27.873H32.4856L31.7703 23.5564C31.626 22.7021 31.1864 21.9256 30.5283 21.3621C29.8702 20.7987 29.0352 20.484 28.1689 20.473Z" fill="black"/>
<path d="M54.4142 26.7011L48.7532 21.0401C48.0363 20.3191 47.6338 19.3436 47.6338 18.3268C47.6338 17.31 48.0363 16.3345 48.7532 15.6135C49.4827 14.9175 50.4522 14.5293 51.4604 14.5293C52.4686 14.5293 53.4381 14.9175 54.1676 15.6135L54.4142 15.8601L54.6609 15.6135C55.3904 14.9175 56.3599 14.5293 57.3681 14.5293C58.3763 14.5293 59.3457 14.9175 60.0752 15.6135C60.4318 15.9697 60.7146 16.3927 60.9075 16.8582C61.1005 17.3238 61.1998 17.8228 61.1998 18.3268C61.1998 18.8308 61.1005 19.3298 60.9075 19.7954C60.7146 20.2609 60.4318 20.6839 60.0752 21.0401L54.4142 26.7011ZM51.4543 15.7368C50.9402 15.7343 50.437 15.8848 50.0087 16.1693C49.5805 16.4537 49.2466 16.8591 49.0495 17.3339C48.8525 17.8087 48.8012 18.3314 48.9021 18.8355C49.0031 19.3396 49.2518 19.8022 49.6166 20.1645L54.4142 24.9498L59.1996 20.1645C59.4457 19.9233 59.6412 19.6355 59.7747 19.3178C59.9082 19.0001 59.977 18.659 59.977 18.3145C59.977 17.9699 59.9082 17.6288 59.7747 17.3111C59.6412 16.9934 59.4457 16.7056 59.1996 16.4645C58.7015 15.988 58.0388 15.7221 57.3496 15.7221C56.6603 15.7221 55.9977 15.988 55.4996 16.4645L54.3896 17.5868L53.2672 16.4645C52.7811 15.9945 52.1304 15.7334 51.4543 15.7368Z" fill="black"/>
<path d="M25.0987 63.7625C24.8697 63.7625 24.6501 63.6715 24.4882 63.5096C24.3263 63.3477 24.2354 63.1281 24.2354 62.8991V56.7325C24.2354 56.6191 24.2577 56.5068 24.3011 56.4021C24.3445 56.2973 24.408 56.2022 24.4882 56.122C24.5684 56.0418 24.6636 55.9782 24.7683 55.9349C24.873 55.8915 24.9853 55.8691 25.0987 55.8691C25.2121 55.8691 25.3243 55.8915 25.4291 55.9349C25.5338 55.9782 25.629 56.0418 25.7092 56.122C25.7893 56.2022 25.8529 56.2973 25.8963 56.4021C25.9397 56.5068 25.962 56.6191 25.962 56.7325V62.8991C25.962 63.1281 25.8711 63.3477 25.7092 63.5096C25.5472 63.6715 25.3277 63.7625 25.0987 63.7625Z" fill="black"/>
<path d="M18.9929 51.4923H12.8262C12.5973 51.4923 12.3777 51.4013 12.2158 51.2394C12.0538 51.0775 11.9629 50.8579 11.9629 50.629C11.9629 50.4 12.0538 50.1804 12.2158 50.0185C12.3777 49.8566 12.5973 49.7656 12.8262 49.7656H18.9929C19.2219 49.7656 19.4415 49.8566 19.6034 50.0185C19.7653 50.1804 19.8562 50.4 19.8562 50.629C19.8562 50.8579 19.7653 51.0775 19.6034 51.2394C19.4415 51.4013 19.2219 51.4923 18.9929 51.4923Z" fill="black"/>
<path d="M16.1687 60.4328C16.0556 60.4333 15.9436 60.4106 15.8397 60.366C15.7357 60.3215 15.642 60.256 15.5644 60.1738C15.4808 60.0943 15.4142 59.9987 15.3687 59.8927C15.3233 59.7867 15.2998 59.6725 15.2998 59.5572C15.2998 59.4418 15.3233 59.3277 15.3687 59.2216C15.4142 59.1156 15.4808 59.02 15.5644 58.9405L19.918 54.5868C19.9975 54.5032 20.0932 54.4367 20.1992 54.3912C20.3052 54.3457 20.4193 54.3223 20.5347 54.3223C20.65 54.3223 20.7642 54.3457 20.8702 54.3912C20.9762 54.4367 21.0719 54.5032 21.1514 54.5868C21.314 54.7508 21.4053 54.9725 21.4053 55.2035C21.4053 55.4345 21.314 55.6561 21.1514 55.8201L16.7977 60.1738C16.7158 60.2573 16.6179 60.3234 16.5098 60.3679C16.4016 60.4124 16.2856 60.4345 16.1687 60.4328Z" fill="black"/>
</g>
<defs>
<clipPath id="clip0_1137_14117">
<rect width="74" height="74" fill="white"/>
</clipPath>
</defs>
</svg>
