<svg width="74" height="74" viewBox="0 0 74 74" fill="none" xmlns="http://www.w3.org/2000/svg">
<g clip-path="url(#clip0_1137_14170)">
<path d="M36.8643 4.93359C34.8641 4.93359 32.9088 5.52673 31.2456 6.638C29.5825 7.74926 28.2863 9.32875 27.5208 11.1767C26.7554 13.0247 26.5551 15.0581 26.9453 17.0199C27.3355 18.9817 28.2987 20.7838 29.7131 22.1981C31.1275 23.6125 32.9295 24.5757 34.8913 24.9659C36.8531 25.3562 38.8865 25.1559 40.7345 24.3904C42.5825 23.625 44.162 22.3287 45.2732 20.6656C46.3845 19.0025 46.9776 17.0472 46.9776 15.0469C46.9744 12.3657 45.9078 9.79524 44.0119 7.89933C42.116 6.00341 39.5455 4.93686 36.8643 4.93359ZM42.8953 20.9669C42.1141 21.7779 41.1773 22.4229 40.1411 22.8635C39.1048 23.3041 37.9903 23.5312 36.8643 23.5312C35.7383 23.5312 34.6238 23.3041 33.5876 22.8635C32.5513 22.4229 31.6145 21.7779 30.8333 20.9669C29.3149 19.4106 28.4689 17.3199 28.4776 15.1456C28.4776 12.9213 29.3612 10.7881 30.934 9.21532C32.5069 7.64252 34.64 6.75893 36.8643 6.75893C39.0886 6.75893 41.2218 7.64252 42.7946 9.21532C44.3674 10.7881 45.251 12.9213 45.251 15.1456C45.2598 17.3199 44.4137 19.4106 42.8953 20.9669Z" fill="black"/>
<path d="M36.8641 16.8229C38.567 16.8229 39.9474 15.4425 39.9474 13.7396C39.9474 12.0367 38.567 10.6562 36.8641 10.6562C35.1612 10.6562 33.7808 12.0367 33.7808 13.7396C33.7808 15.4425 35.1612 16.8229 36.8641 16.8229Z" fill="black"/>
<path d="M43.2405 22.9516C41.436 24.4115 39.1852 25.2079 36.8641 25.2079C34.5431 25.2079 32.2923 24.4115 30.4878 22.9516L30.8331 21.0893V20.966C31.0107 20.1391 31.4662 19.3981 32.1237 18.8662C32.7812 18.3344 33.6011 18.0438 34.4468 18.043H39.2815C40.1272 18.0438 40.947 18.3344 41.6045 18.8662C42.2621 19.3981 42.7175 20.1391 42.8951 20.966V21.1386L43.2405 22.9516Z" fill="black"/>
<path d="M52.5152 48.791C50.515 48.791 48.5597 49.3841 46.8965 50.4954C45.2334 51.6067 43.9371 53.1862 43.1717 55.0341C42.4062 56.8821 42.206 58.9156 42.5962 60.8774C42.9864 62.8392 43.9496 64.6412 45.364 66.0556C46.7784 67.4699 48.5804 68.4331 50.5422 68.8234C52.504 69.2136 54.5374 69.0133 56.3854 68.2478C58.2334 67.4824 59.8129 66.1861 60.9241 64.523C62.0354 62.8599 62.6285 60.9046 62.6285 58.9043C62.6253 56.2231 61.5587 53.6527 59.6628 51.7567C57.7669 49.8608 55.1964 48.7943 52.5152 48.791ZM58.5462 64.7257C57.765 65.5366 56.8282 66.1817 55.792 66.6223C54.7557 67.0629 53.6412 67.29 52.5152 67.29C51.3892 67.29 50.2747 67.0629 49.2384 66.6223C48.2022 66.1817 47.2654 65.5366 46.4842 64.7257C44.9658 63.1694 44.1197 61.0787 44.1285 58.9043C44.1285 56.6801 45.0121 54.5469 46.5849 52.9741C48.1577 51.4013 50.2909 50.5177 52.5152 50.5177C54.7395 50.5177 56.8727 51.4013 58.4455 52.9741C60.0183 54.5469 60.9019 56.6801 60.9019 58.9043C60.9106 61.0787 60.0646 63.1694 58.5462 64.7257Z" fill="black"/>
<path d="M52.5155 60.6315C54.2183 60.6315 55.5988 59.2511 55.5988 57.5482C55.5988 55.8453 54.2183 54.4648 52.5155 54.4648C50.8126 54.4648 49.4321 55.8453 49.4321 57.5482C49.4321 59.2511 50.8126 60.6315 52.5155 60.6315Z" fill="black"/>
<path d="M58.8918 66.7607C57.0873 68.2206 54.8366 69.017 52.5155 69.017C50.1944 69.017 47.9437 68.2206 46.1392 66.7607L46.4475 64.8984V64.7257C46.6251 63.8989 47.0806 63.1579 47.7381 62.626C48.3956 62.0942 49.2155 61.8036 50.0612 61.8027H54.8958C55.7415 61.8036 56.5614 62.0942 57.2189 62.626C57.8764 63.1579 58.3319 63.8989 58.5095 64.7257V64.8984L58.8918 66.7607Z" fill="black"/>
<path d="M21.4844 48.791C19.4842 48.791 17.5289 49.3841 15.8658 50.4954C14.2026 51.6067 12.9064 53.1862 12.1409 55.0341C11.3755 56.8821 11.1752 58.9156 11.5654 60.8774C11.9556 62.8392 12.9188 64.6412 14.3332 66.0556C15.7476 67.4699 17.5496 68.4331 19.5114 68.8234C21.4732 69.2136 23.5067 69.0133 25.3546 68.2478C27.2026 67.4824 28.7821 66.1861 29.8934 64.523C31.0046 62.8599 31.5978 60.9046 31.5978 58.9043C31.5945 56.2231 30.5279 53.6527 28.632 51.7567C26.7361 49.8608 24.1657 48.7943 21.4844 48.791ZM27.5154 64.7257C26.7342 65.5366 25.7974 66.1817 24.7612 66.6223C23.7249 67.0629 22.6105 67.29 21.4844 67.29C20.3584 67.29 19.2439 67.0629 18.2077 66.6223C17.1714 66.1817 16.2347 65.5366 15.4534 64.7257C13.935 63.1694 13.089 61.0787 13.0978 58.9043C13.0978 56.6801 13.9814 54.5469 15.5542 52.9741C17.127 51.4013 19.2601 50.5177 21.4844 50.5177C23.7087 50.5177 25.8419 51.4013 27.4147 52.9741C28.9875 54.5469 29.8711 56.6801 29.8711 58.9043C29.8799 61.0787 29.0339 63.1694 27.5154 64.7257Z" fill="black"/>
<path d="M21.4847 60.6315C23.1876 60.6315 24.568 59.2511 24.568 57.5482C24.568 55.8453 23.1876 54.4648 21.4847 54.4648C19.7818 54.4648 18.4014 55.8453 18.4014 57.5482C18.4014 59.2511 19.7818 60.6315 21.4847 60.6315Z" fill="black"/>
<path d="M27.8611 66.7607C26.0566 68.2206 23.8058 69.017 21.4847 69.017C19.1637 69.017 16.9129 68.2206 15.1084 66.7607L15.4167 64.8984V64.7257C15.5943 63.8989 16.0498 63.1579 16.7073 62.626C17.3648 62.0942 18.1847 61.8036 19.0304 61.8027H23.8651C24.7108 61.8036 25.5306 62.0942 26.1881 62.626C26.8457 63.1579 27.3011 63.8989 27.4787 64.7257V64.8984L27.8611 66.7607Z" fill="black"/>
<path d="M62.9618 39.9856L63.3935 39.7389C63.2538 39.8282 63.1097 39.9106 62.9618 39.9856ZM54.3901 39.7389L54.8218 39.9856C54.6737 39.9065 54.5296 39.8201 54.3901 39.7266V39.7389Z" fill="black"/>
<path d="M58.8917 22.5449C56.8914 22.5449 54.9361 23.1381 53.273 24.2493C51.6099 25.3606 50.3136 26.9401 49.5482 28.788C48.7827 30.636 48.5824 32.6695 48.9727 34.6313C49.3629 36.5931 50.3261 38.3951 51.7405 39.8095C53.1548 41.2238 54.9569 42.187 56.9186 42.5773C58.8804 42.9675 60.9139 42.7672 62.7619 42.0018C64.6098 41.2363 66.1893 39.94 67.3006 38.2769C68.4119 36.6138 69.005 34.6585 69.005 32.6583C69.0017 29.977 67.9352 27.4066 66.0393 25.5107C64.1433 23.6147 61.5729 22.5482 58.8917 22.5449ZM63.3933 39.7376L62.9617 39.9843H62.8753C62.6637 40.1034 62.4454 40.2105 62.2217 40.3049L61.568 40.5516L61.2227 40.6626C61.0242 40.7235 60.8225 40.7729 60.6183 40.8106C60.3667 40.8697 60.1111 40.9109 59.8537 40.9339C59.7926 40.9462 59.7297 40.9462 59.6687 40.9339C59.1527 40.9994 58.6306 40.9994 58.1147 40.9339C58.0536 40.9462 57.9907 40.9462 57.9297 40.9339C57.6722 40.9109 57.4166 40.8697 57.165 40.8106C56.9609 40.7729 56.7591 40.7235 56.5607 40.6626L56.2153 40.5516L55.5617 40.3049C55.3379 40.2105 55.1196 40.1034 54.908 39.9843H54.8217L54.39 39.7376L54.5257 38.9606V38.8496C54.6212 38.4101 54.8641 38.0164 55.214 37.7338C55.5639 37.4512 55.9999 37.2966 56.4497 37.2956H61.2843C61.7324 37.2959 62.167 37.4488 62.5167 37.729C62.8664 38.0092 63.1103 38.4 63.2083 38.8373V38.9483L63.344 39.7376H63.3933ZM64.9227 38.5043C64.7451 37.6774 64.2896 36.9364 63.6321 36.4045C62.9745 35.8727 62.1547 35.5821 61.309 35.5813H56.4743C55.6286 35.5821 54.8088 35.8727 54.1512 36.4045C53.4937 36.9364 53.0383 37.6774 52.8607 38.5043C51.3587 36.9319 50.5349 34.8324 50.5667 32.6583C50.5667 31.5569 50.7836 30.4663 51.2051 29.4488C51.6265 28.4313 52.2443 27.5068 53.0231 26.728C53.8018 25.9492 54.7264 25.3315 55.7439 24.91C56.7614 24.4885 57.852 24.2716 58.9533 24.2716C60.0547 24.2716 61.1452 24.4885 62.1628 24.91C63.1803 25.3315 64.1048 25.9492 64.8836 26.728C65.6624 27.5068 66.2801 28.4313 66.7016 29.4488C67.1231 30.4663 67.34 31.5569 67.34 32.6583C67.3323 34.8413 66.4637 36.9332 64.9227 38.4796V38.5043Z" fill="black"/>
<path d="M58.8914 34.3854C60.5943 34.3854 61.9748 33.005 61.9748 31.3021C61.9748 29.5992 60.5943 28.2188 58.8914 28.2188C57.1886 28.2188 55.8081 29.5992 55.8081 31.3021C55.8081 33.005 57.1886 34.3854 58.8914 34.3854Z" fill="black"/>
<path d="M19.1783 39.9856L19.6099 39.7389C19.4702 39.8282 19.3261 39.9106 19.1783 39.9856ZM10.5449 39.7389L10.9766 39.9856C10.8284 39.9065 10.6844 39.8201 10.5449 39.7266V39.7389Z" fill="black"/>
<path d="M15.1085 22.5449C13.1082 22.5449 11.1529 23.1381 9.48979 24.2493C7.82666 25.3606 6.53041 26.9401 5.76495 28.788C4.9995 30.636 4.79922 32.6695 5.18945 34.6313C5.57967 36.5931 6.54287 38.3951 7.95725 39.8095C9.37162 41.2238 11.1736 42.187 13.1354 42.5773C15.0972 42.9675 17.1307 42.7672 18.9787 42.0018C20.8266 41.2363 22.4061 39.94 23.5174 38.2769C24.6286 36.6138 25.2218 34.6585 25.2218 32.6583C25.2185 29.977 24.152 27.4066 22.2561 25.5107C20.3601 23.6147 17.7897 22.5482 15.1085 22.5449ZM19.6101 39.7376L19.1785 39.9843H19.0921C18.8805 40.1034 18.6622 40.2105 18.4385 40.3049L17.7848 40.5516L17.4395 40.6626C17.241 40.7235 17.0392 40.7729 16.8351 40.8106C16.5835 40.8697 16.3279 40.9109 16.0705 40.9339C16.0094 40.9462 15.9465 40.9462 15.8855 40.9339C15.3695 40.9994 14.8474 40.9994 14.3315 40.9339C14.2704 40.9462 14.2075 40.9462 14.1465 40.9339C13.889 40.9109 13.6334 40.8697 13.3818 40.8106C13.1777 40.7729 12.9759 40.7235 12.7775 40.6626L12.4321 40.5516L11.7785 40.3049C11.5474 40.2274 11.3209 40.1368 11.1001 40.0336H11.0138L10.5821 39.7869L10.7178 39.0099V38.8989C10.8134 38.4594 11.0562 38.0657 11.4061 37.7831C11.756 37.5005 12.192 37.3459 12.6418 37.3449H17.4765C17.9245 37.3453 18.3592 37.4981 18.7088 37.7783C19.0585 38.0585 19.3024 38.4494 19.4005 38.8866V38.9976L19.5361 39.7869L19.6101 39.7376ZM21.1395 38.5043C20.9619 37.6774 20.5064 36.9364 19.8489 36.4045C19.1913 35.8727 18.3715 35.5821 17.5258 35.5813H12.6911C11.8488 35.5809 11.0316 35.8679 10.3746 36.3949C9.71753 36.9219 9.25995 37.6573 9.07746 38.4796C7.55903 36.9233 6.713 34.8326 6.72179 32.6583C6.72179 30.434 7.60538 28.3008 9.17819 26.728C10.751 25.1552 12.8842 24.2716 15.1085 24.2716C17.3327 24.2716 19.4659 25.1552 21.0387 26.728C22.6115 28.3008 23.4951 30.434 23.4951 32.6583C23.5039 34.8326 22.6579 36.9233 21.1395 38.4796V38.5043Z" fill="black"/>
<path d="M15.1082 34.3854C16.8111 34.3854 18.1916 33.005 18.1916 31.3021C18.1916 29.5992 16.8111 28.2188 15.1082 28.2188C13.4054 28.2188 12.0249 29.5992 12.0249 31.3021C12.0249 33.005 13.4054 34.3854 15.1082 34.3854Z" fill="black"/>
<path d="M36.9998 35.7917C38.7027 35.7917 40.0832 34.4112 40.0832 32.7083C40.0832 31.0055 38.7027 29.625 36.9998 29.625C35.297 29.625 33.9165 31.0055 33.9165 32.7083C33.9165 34.4112 35.297 35.7917 36.9998 35.7917Z" fill="black"/>
<path d="M39.4665 37.0004H34.5332C33.6499 36.988 32.7914 37.2921 32.1128 37.8576C31.4342 38.4231 30.9803 39.2127 30.8332 40.0837L30.4632 42.353C30.4182 42.6129 30.4324 42.8795 30.5049 43.133C30.5773 43.3866 30.7061 43.6205 30.8816 43.8173C31.0571 44.0142 31.2748 44.1688 31.5184 44.2698C31.762 44.3707 32.0252 44.4154 32.2885 44.4004H41.7112C41.9663 44.4004 42.2183 44.3448 42.4496 44.2373C42.681 44.1298 42.886 43.9731 43.0505 43.7781C43.2149 43.5831 43.3348 43.3546 43.4017 43.1084C43.4686 42.8622 43.481 42.6044 43.4379 42.353L43.0678 40.0837C42.9235 39.2294 42.484 38.4529 41.8259 37.8895C41.1678 37.326 40.3328 37.0114 39.4665 37.0004Z" fill="black"/>
</g>
<defs>
<clipPath id="clip0_1137_14170">
<rect width="74" height="74" fill="white"/>
</clipPath>
</defs>
</svg>
