<svg width="35" height="24" viewBox="0 0 35 24" fill="none" xmlns="http://www.w3.org/2000/svg">
<rect x="0.5" y="0.5" width="34" height="23" rx="3.5" fill="white" stroke="#D9D9D9"/>
<path fill-rule="evenodd" clip-rule="evenodd" d="M9.90001 15.2412H8.34439C8.23794 15.2412 8.1474 15.3186 8.1308 15.4236L7.50163 19.4127C7.48913 19.4914 7.55009 19.5624 7.62993 19.5624H8.37259C8.47905 19.5624 8.56958 19.485 8.58618 19.3797L8.75588 18.3038C8.77225 18.1985 8.863 18.1212 8.96924 18.1212H9.46169C10.4864 18.1212 11.0778 17.6253 11.2323 16.6427C11.3019 16.2128 11.2353 15.875 11.0339 15.6384C10.8129 15.3787 10.4206 15.2412 9.90001 15.2412ZM10.0795 16.6982C9.99443 17.2564 9.56792 17.2564 9.15553 17.2564H8.92078L9.08547 16.2138C9.09525 16.1509 9.14984 16.1045 9.21353 16.1045H9.32112C9.60204 16.1045 9.86706 16.1045 10.004 16.2646C10.0856 16.3602 10.1106 16.5021 10.0795 16.6982ZM14.5501 16.6803H13.8052C13.7417 16.6803 13.6869 16.7267 13.6771 16.7897L13.6441 16.9981L13.592 16.9226C13.4308 16.6885 13.0712 16.6103 12.7122 16.6103C11.889 16.6103 11.1859 17.2337 11.049 18.1084C10.9778 18.5446 11.079 18.9617 11.3264 19.2527C11.5535 19.5202 11.8783 19.6316 12.2647 19.6316C12.928 19.6316 13.2959 19.2051 13.2959 19.2051L13.2626 19.4122C13.2501 19.4913 13.3111 19.5623 13.3904 19.5623H14.0615C14.1682 19.5623 14.2582 19.4849 14.2751 19.3796L14.6777 16.83C14.6904 16.7515 14.6297 16.6803 14.5501 16.6803ZM13.5117 18.1302C13.4398 18.5557 13.102 18.8414 12.6713 18.8414C12.455 18.8414 12.282 18.7721 12.1711 18.6406C12.061 18.5101 12.0191 18.3242 12.0541 18.1172C12.1213 17.6952 12.4647 17.4003 12.889 17.4003C13.1004 17.4003 13.2724 17.4705 13.3857 17.6031C13.4992 17.7371 13.5442 17.9241 13.5117 18.1302ZM17.769 16.6802H18.5176C18.6224 16.6802 18.6836 16.7977 18.624 16.8837L16.1342 20.4776C16.0939 20.5359 16.0275 20.5705 15.9565 20.5705H15.2089C15.1036 20.5705 15.0421 20.452 15.1031 20.3657L15.8783 19.2714L15.0538 16.8516C15.0253 16.7675 15.0874 16.6802 15.1769 16.6802H15.9124C16.008 16.6802 16.0923 16.7429 16.1199 16.8344L16.5575 18.2958L17.59 16.775C17.6304 16.7156 17.6976 16.6802 17.769 16.6802Z" fill="#253B80"/>
<path fill-rule="evenodd" clip-rule="evenodd" d="M25.8851 19.4129L26.5236 15.3509C26.5334 15.2878 26.588 15.2414 26.6515 15.2412H27.3702C27.4496 15.2412 27.5105 15.3124 27.498 15.3911L26.8684 19.38C26.852 19.4852 26.7615 19.5626 26.6548 19.5626H26.0129C25.9336 19.5626 25.8726 19.4916 25.8851 19.4129ZM20.9958 15.2414H19.4399C19.3337 15.2414 19.2431 15.3188 19.2265 15.4238L18.5973 19.4129C18.5848 19.4916 18.6458 19.5626 18.7252 19.5626H19.5236C19.5978 19.5626 19.6612 19.5085 19.6728 19.4348L19.8513 18.3041C19.8678 18.1987 19.9585 18.1214 20.0647 18.1214H20.5569C21.5819 18.1214 22.1731 17.6255 22.3278 16.6429C22.3976 16.213 22.3305 15.8752 22.1292 15.6386C21.9083 15.3789 21.5164 15.2414 20.9958 15.2414ZM21.1752 16.6984C21.0904 17.2566 20.6639 17.2566 20.2512 17.2566H20.0167L20.1817 16.2141C20.1914 16.1511 20.2456 16.1047 20.3094 16.1047H20.417C20.6978 16.1047 20.963 16.1047 21.0999 16.2648C21.1816 16.3604 21.2064 16.5023 21.1752 16.6984ZM25.6455 16.6805H24.901C24.837 16.6805 24.7827 16.7269 24.7731 16.79L24.7402 16.9983L24.6879 16.9228C24.5266 16.6887 24.1672 16.6105 23.8083 16.6105C22.985 16.6105 22.2822 17.234 22.1452 18.1086C22.0743 18.5448 22.175 18.962 22.4225 19.2529C22.65 19.5204 22.9744 19.6319 23.3608 19.6319C24.0241 19.6319 24.3919 19.2053 24.3919 19.2053L24.3587 19.4124C24.3462 19.4915 24.4071 19.5625 24.487 19.5625H25.1578C25.264 19.5625 25.3545 19.4851 25.3711 19.3799L25.774 16.8302C25.7863 16.7517 25.7254 16.6805 25.6455 16.6805ZM24.6071 18.1304C24.5357 18.556 24.1975 18.8416 23.7666 18.8416C23.5507 18.8416 23.3775 18.7723 23.2664 18.6408C23.1563 18.5103 23.1149 18.3244 23.1496 18.1174C23.217 17.6954 23.5601 17.4005 23.9843 17.4005C24.1959 17.4005 24.3678 17.4707 24.4811 17.6033C24.595 17.7373 24.6401 17.9243 24.6071 18.1304Z" fill="#179BD7"/>
<path d="M15.6566 13.8138L15.8479 12.5991L15.4219 12.5892H13.3877L14.8014 3.62534C14.8057 3.59828 14.82 3.57305 14.8409 3.55513C14.8617 3.53722 14.8884 3.52734 14.9162 3.52734H18.3462C19.485 3.52734 20.2708 3.7643 20.6811 4.232C20.8734 4.45141 20.9959 4.68068 21.0552 4.933C21.1173 5.19776 21.1184 5.51406 21.0577 5.89985L21.0533 5.92801V6.1752L21.2457 6.28418C21.4077 6.37011 21.5363 6.46848 21.6351 6.58111C21.7997 6.7687 21.9061 7.00712 21.9511 7.28978C21.9975 7.5805 21.9821 7.92643 21.9061 8.31807C21.8183 8.76859 21.6765 9.16096 21.4849 9.48202C21.3086 9.77785 21.084 10.0232 20.8175 10.2134C20.563 10.394 20.2606 10.5312 19.9187 10.619C19.5873 10.7052 19.2096 10.7488 18.7953 10.7488H18.5283C18.3375 10.7488 18.152 10.8175 18.0065 10.9408C17.8607 11.0665 17.764 11.2383 17.7344 11.4263L17.7143 11.5357L17.3764 13.6767L17.3611 13.7553C17.3571 13.7802 17.3501 13.7927 17.3399 13.8011C17.3308 13.8087 17.3176 13.8138 17.3048 13.8138H15.6566Z" fill="#253B80"/>
<path d="M21.4279 5.95703C21.4177 6.02248 21.406 6.0894 21.3928 6.15815C20.9404 8.48056 19.3929 9.28286 17.4164 9.28286H16.4101C16.1684 9.28286 15.9647 9.45838 15.927 9.6968L15.4118 12.9645L15.2659 13.8907C15.2413 14.0473 15.3621 14.1884 15.52 14.1884H17.3049C17.5163 14.1884 17.6958 14.0348 17.729 13.8264L17.7466 13.7357L18.0827 11.603L18.1043 11.4861C18.1371 11.2769 18.317 11.1234 18.5284 11.1234H18.7954C20.5246 11.1234 21.8784 10.4213 22.2741 8.38951C22.4394 7.54077 22.3538 6.8321 21.9164 6.33367C21.7841 6.18338 21.6199 6.05868 21.4279 5.95703Z" fill="#179BD7"/>
<path d="M20.9545 5.7688C20.8854 5.74869 20.814 5.7304 20.7409 5.71395C20.6674 5.69787 20.592 5.6836 20.5146 5.67117C20.2432 5.62729 19.9459 5.60645 19.6274 5.60645H16.939C16.8728 5.60645 16.8099 5.62143 16.7536 5.6485C16.6296 5.7081 16.5375 5.82549 16.5152 5.96919L15.9432 9.59159L15.9268 9.69727C15.9644 9.45884 16.1681 9.28332 16.4098 9.28332H17.4161C19.3927 9.28332 20.9402 8.48066 21.3926 6.15862C21.406 6.08987 21.4174 6.02295 21.4276 5.9575C21.3132 5.89679 21.1892 5.84487 21.0557 5.80061C21.0229 5.78965 20.9889 5.77905 20.9545 5.7688Z" fill="#222D65"/>
<path d="M16.5156 5.96866C16.5379 5.82495 16.6301 5.70757 16.754 5.64833C16.8107 5.62126 16.8733 5.60627 16.9394 5.60627H19.6279C19.9464 5.60627 20.2437 5.62712 20.5149 5.671C20.5925 5.68343 20.6679 5.6977 20.7414 5.71378C20.8145 5.73024 20.8858 5.74853 20.9549 5.76863C20.9893 5.77887 21.0233 5.78947 21.0565 5.80008C21.19 5.84433 21.314 5.89662 21.4284 5.95696C21.5631 5.09871 21.4274 4.51437 20.9634 3.98523C20.4518 3.40271 19.5284 3.15332 18.3469 3.15332H14.9168C14.6755 3.15332 14.4697 3.32884 14.4323 3.56763L13.0037 12.6236C12.9755 12.8028 13.1137 12.9645 13.2943 12.9645H15.412L15.9437 9.59105L16.5156 5.96866Z" fill="#253B80"/>
</svg>
