<svg width="24" height="24" viewBox="0 0 24 24" fill="none" xmlns="http://www.w3.org/2000/svg">
<path d="M17.9769 3.75C14.0334 4.203 7.32842 3.975 4.60742 3.888V4.827C6.40742 5.1675 6.81692 5.1045 6.85442 6.15225C6.98417 9.0195 6.92042 15.3495 6.85442 18.0135C6.84092 19.0162 6.28142 18.9817 4.60742 19.311V20.25C10.0809 20.0753 13.8369 20.0917 18.1787 20.25C18.2342 19.5562 18.5657 16.7843 18.7007 15.75H17.7752C16.7312 18.2198 16.5302 19.062 14.2937 19.062H11.0064C9.90167 19.062 9.37592 18.6098 9.37592 17.6528V12.5347C11.8254 12.5347 12.6159 12.6083 12.6159 12.6083C13.7379 12.6255 13.9127 13.5225 14.2502 15H15.0002C14.9207 11.3752 14.8382 12.7327 15.0002 9H14.2502C13.7642 11.0903 13.7327 11.3377 12.6362 11.373C12.6362 11.373 11.5127 11.4832 9.37667 11.4653V5.43525C9.37667 5.20425 9.39467 5.07525 9.77192 5.07525H14.8187C16.0997 5.07525 16.4087 6.7155 16.7964 8.25H17.7002C17.7332 7.58475 17.8652 4.974 17.9769 3.75Z" fill="white" fill-opacity="0.8"/>
</svg>
