<svg width="32" height="32" viewBox="0 0 32 32" fill="none" xmlns="http://www.w3.org/2000/svg">
<g clip-path="url(#clip0_7_17300)">
<path d="M24.7394 27.4283H7.26036C6.54718 27.4283 5.8632 27.1241 5.3589 26.5825C4.8546 26.041 4.57129 25.3065 4.57129 24.5407V9.14258H27.4284V24.5407C27.4284 25.3065 27.1451 26.041 26.6408 26.5825C26.1365 27.1241 25.4525 27.4283 24.7394 27.4283Z" stroke="white" stroke-width="1.6" stroke-miterlimit="10"/>
<path d="M21.7142 14.8563V9.55748C21.7142 7.93177 21.1122 6.37265 20.0405 5.2231C18.9689 4.07355 17.5155 3.42773 15.9999 3.42773C14.4844 3.42773 13.031 4.07355 11.9593 5.2231C10.8877 6.37265 10.2856 7.93177 10.2856 9.55748V14.8563" stroke="white" stroke-width="1.6" stroke-miterlimit="10" stroke-linecap="round"/>
</g>
<defs>
<clipPath id="clip0_7_17300">
<rect width="32" height="32" fill="white"/>
</clipPath>
</defs>
</svg>
