<svg width="74" height="74" viewBox="0 0 74 74" fill="none" xmlns="http://www.w3.org/2000/svg">
<g clip-path="url(#clip0_1818_256)">
<path d="M36.8643 4.93359C34.8641 4.93359 32.9088 5.52673 31.2456 6.638C29.5825 7.74926 28.2863 9.32875 27.5208 11.1767C26.7554 13.0247 26.5551 15.0581 26.9453 17.0199C27.3355 18.9817 28.2987 20.7838 29.7131 22.1981C31.1275 23.6125 32.9295 24.5757 34.8913 24.9659C36.8531 25.3562 38.8865 25.1559 40.7345 24.3904C42.5825 23.625 44.162 22.3287 45.2732 20.6656C46.3845 19.0025 46.9776 17.0472 46.9776 15.0469C46.9744 12.3657 45.9078 9.79524 44.0119 7.89933C42.116 6.00341 39.5455 4.93686 36.8643 4.93359ZM42.8953 20.9669C42.1141 21.7779 41.1773 22.4229 40.1411 22.8635C39.1048 23.3041 37.9903 23.5312 36.8643 23.5312C35.7383 23.5312 34.6238 23.3041 33.5876 22.8635C32.5513 22.4229 31.6145 21.7779 30.8333 20.9669C29.3149 19.4106 28.4689 17.3199 28.4776 15.1456C28.4776 12.9213 29.3612 10.7881 30.934 9.21532C32.5069 7.64252 34.64 6.75893 36.8643 6.75893C39.0886 6.75893 41.2218 7.64252 42.7946 9.21532C44.3674 10.7881 45.251 12.9213 45.251 15.1456C45.2598 17.3199 44.4137 19.4106 42.8953 20.9669Z" fill="black"/>
<path d="M36.8643 16.8229C38.5672 16.8229 39.9477 15.4425 39.9477 13.7396C39.9477 12.0367 38.5672 10.6562 36.8643 10.6562C35.1615 10.6562 33.781 12.0367 33.781 13.7396C33.781 15.4425 35.1615 16.8229 36.8643 16.8229Z" fill="black"/>
<path d="M43.2407 22.9516C41.4362 24.4115 39.1854 25.2079 36.8644 25.2079C34.5433 25.2079 32.2925 24.4115 30.488 22.9516L30.8334 21.0893V20.966C31.011 20.1391 31.4664 19.3981 32.124 18.8662C32.7815 18.3344 33.6013 18.0438 34.447 18.043H39.2817C40.1274 18.0438 40.9473 18.3344 41.6048 18.8662C42.2623 19.3981 42.7178 20.1391 42.8954 20.966V21.1386L43.2407 22.9516Z" fill="black"/>
<path d="M52.5153 48.791C50.5151 48.791 48.5598 49.3841 46.8966 50.4954C45.2335 51.6067 43.9373 53.1862 43.1718 55.0341C42.4064 56.8821 42.2061 58.9156 42.5963 60.8774C42.9865 62.8392 43.9497 64.6412 45.3641 66.0556C46.7785 67.4699 48.5805 68.4331 50.5423 68.8234C52.5041 69.2136 54.5375 69.0133 56.3855 68.2478C58.2335 67.4824 59.813 66.1861 60.9242 64.523C62.0355 62.8599 62.6286 60.9046 62.6286 58.9043C62.6254 56.2231 61.5588 53.6527 59.6629 51.7567C57.767 49.8608 55.1965 48.7943 52.5153 48.791ZM58.5463 64.7257C57.7651 65.5366 56.8283 66.1817 55.7921 66.6223C54.7558 67.0629 53.6414 67.29 52.5153 67.29C51.3893 67.29 50.2748 67.0629 49.2386 66.6223C48.2023 66.1817 47.2655 65.5366 46.4843 64.7257C44.9659 63.1694 44.1199 61.0787 44.1286 58.9043C44.1286 56.6801 45.0122 54.5469 46.585 52.9741C48.1579 51.4013 50.291 50.5177 52.5153 50.5177C54.7396 50.5177 56.8728 51.4013 58.4456 52.9741C60.0184 54.5469 60.902 56.6801 60.902 58.9043C60.9108 61.0787 60.0647 63.1694 58.5463 64.7257Z" fill="black"/>
<path d="M52.5153 60.6315C54.2182 60.6315 55.5987 59.2511 55.5987 57.5482C55.5987 55.8453 54.2182 54.4648 52.5153 54.4648C50.8125 54.4648 49.432 55.8453 49.432 57.5482C49.432 59.2511 50.8125 60.6315 52.5153 60.6315Z" fill="black"/>
<path d="M58.8917 66.7607C57.0872 68.2206 54.8364 69.017 52.5154 69.017C50.1943 69.017 47.9435 68.2206 46.139 66.7607L46.4474 64.8984V64.7257C46.625 63.8989 47.0804 63.1579 47.738 62.626C48.3955 62.0942 49.2153 61.8036 50.061 61.8027H54.8957C55.7414 61.8036 56.5613 62.0942 57.2188 62.626C57.8763 63.1579 58.3318 63.8989 58.5094 64.7257V64.8984L58.8917 66.7607Z" fill="black"/>
<path d="M21.4847 48.791C19.4844 48.791 17.5291 49.3841 15.866 50.4954C14.2029 51.6067 12.9066 53.1862 12.1412 55.0341C11.3757 56.8821 11.1754 58.9156 11.5657 60.8774C11.9559 62.8392 12.9191 64.6412 14.3335 66.0556C15.7478 67.4699 17.5499 68.4331 19.5117 68.8234C21.4735 69.2136 23.5069 69.0133 25.3549 68.2478C27.2028 67.4824 28.7823 66.1861 29.8936 64.523C31.0049 62.8599 31.598 60.9046 31.598 58.9043C31.5947 56.2231 30.5282 53.6527 28.6323 51.7567C26.7364 49.8608 24.1659 48.7943 21.4847 48.791ZM27.5157 64.7257C26.7344 65.5366 25.7977 66.1817 24.7614 66.6223C23.7252 67.0629 22.6107 67.29 21.4847 67.29C20.3586 67.29 19.2442 67.0629 18.2079 66.6223C17.1717 66.1817 16.2349 65.5366 15.4537 64.7257C13.9352 63.1694 13.0892 61.0787 13.098 58.9043C13.098 56.6801 13.9816 54.5469 15.5544 52.9741C17.1272 51.4013 19.2604 50.5177 21.4847 50.5177C23.709 50.5177 25.8421 51.4013 27.4149 52.9741C28.9877 54.5469 29.8713 56.6801 29.8713 58.9043C29.8801 61.0787 29.0341 63.1694 27.5157 64.7257Z" fill="black"/>
<path d="M21.4847 60.6315C23.1876 60.6315 24.568 59.2511 24.568 57.5482C24.568 55.8453 23.1876 54.4648 21.4847 54.4648C19.7818 54.4648 18.4014 55.8453 18.4014 57.5482C18.4014 59.2511 19.7818 60.6315 21.4847 60.6315Z" fill="black"/>
<path d="M27.8609 66.7607C26.0565 68.2206 23.8057 69.017 21.4846 69.017C19.1635 69.017 16.9128 68.2206 15.1083 66.7607L15.4166 64.8984V64.7257C15.5942 63.8989 16.0497 63.1579 16.7072 62.626C17.3647 62.0942 18.1846 61.8036 19.0303 61.8027H23.8649C24.7106 61.8036 25.5305 62.0942 26.188 62.626C26.8455 63.1579 27.301 63.8989 27.4786 64.7257V64.8984L27.8609 66.7607Z" fill="black"/>
<path d="M62.9617 39.9856L63.3934 39.7389C63.2536 39.8282 63.1096 39.9106 62.9617 39.9856ZM54.39 39.7389L54.8217 39.9856C54.6735 39.9065 54.5295 39.8201 54.39 39.7266V39.7389Z" fill="black"/>
<path d="M58.8917 22.5449C56.8914 22.5449 54.9361 23.1381 53.273 24.2493C51.6099 25.3606 50.3136 26.9401 49.5482 28.788C48.7827 30.636 48.5824 32.6695 48.9727 34.6313C49.3629 36.5931 50.3261 38.3951 51.7405 39.8095C53.1548 41.2238 54.9569 42.187 56.9186 42.5773C58.8804 42.9675 60.9139 42.7672 62.7619 42.0018C64.6098 41.2363 66.1893 39.94 67.3006 38.2769C68.4119 36.6138 69.005 34.6585 69.005 32.6583C69.0017 29.977 67.9352 27.4066 66.0393 25.5107C64.1433 23.6147 61.5729 22.5482 58.8917 22.5449ZM63.3933 39.7376L62.9617 39.9843H62.8753C62.6637 40.1034 62.4454 40.2105 62.2217 40.3049L61.568 40.5516L61.2227 40.6626C61.0242 40.7235 60.8225 40.7729 60.6183 40.8106C60.3667 40.8697 60.1111 40.9109 59.8537 40.9339C59.7926 40.9462 59.7297 40.9462 59.6687 40.9339C59.1527 40.9994 58.6306 40.9994 58.1147 40.9339C58.0536 40.9462 57.9907 40.9462 57.9297 40.9339C57.6722 40.9109 57.4166 40.8697 57.165 40.8106C56.9609 40.7729 56.7591 40.7235 56.5607 40.6626L56.2153 40.5516L55.5617 40.3049C55.3379 40.2105 55.1196 40.1034 54.908 39.9843H54.8217L54.39 39.7376L54.5257 38.9606V38.8496C54.6212 38.4101 54.8641 38.0164 55.214 37.7338C55.5639 37.4512 55.9999 37.2966 56.4497 37.2956H61.2843C61.7324 37.2959 62.167 37.4488 62.5167 37.729C62.8664 38.0092 63.1103 38.4 63.2083 38.8373V38.9483L63.344 39.7376H63.3933ZM64.9227 38.5043C64.7451 37.6774 64.2896 36.9364 63.6321 36.4045C62.9745 35.8727 62.1547 35.5821 61.309 35.5813H56.4743C55.6286 35.5821 54.8088 35.8727 54.1512 36.4045C53.4937 36.9364 53.0383 37.6774 52.8607 38.5043C51.3587 36.9319 50.5349 34.8324 50.5667 32.6583C50.5667 31.5569 50.7836 30.4663 51.2051 29.4488C51.6265 28.4313 52.2443 27.5068 53.0231 26.728C53.8018 25.9492 54.7264 25.3315 55.7439 24.91C56.7614 24.4885 57.852 24.2716 58.9533 24.2716C60.0547 24.2716 61.1452 24.4885 62.1628 24.91C63.1803 25.3315 64.1048 25.9492 64.8836 26.728C65.6624 27.5068 66.2801 28.4313 66.7016 29.4488C67.1231 30.4663 67.34 31.5569 67.34 32.6583C67.3323 34.8413 66.4637 36.9332 64.9227 38.4796V38.5043Z" fill="black"/>
<path d="M58.8917 34.3854C60.5946 34.3854 61.975 33.005 61.975 31.3021C61.975 29.5992 60.5946 28.2188 58.8917 28.2188C57.1888 28.2188 55.8083 29.5992 55.8083 31.3021C55.8083 33.005 57.1888 34.3854 58.8917 34.3854Z" fill="black"/>
<path d="M19.1784 39.9856L19.61 39.7389C19.4703 39.8282 19.3263 39.9106 19.1784 39.9856ZM10.545 39.7389L10.9767 39.9856C10.8286 39.9065 10.6845 39.8201 10.545 39.7266V39.7389Z" fill="black"/>
<path d="M15.1083 22.5449C13.1081 22.5449 11.1528 23.1381 9.48967 24.2493C7.82654 25.3606 6.53029 26.9401 5.76483 28.788C4.99938 30.636 4.7991 32.6695 5.18932 34.6313C5.57955 36.5931 6.54275 38.3951 7.95713 39.8095C9.3715 41.2238 11.1735 42.187 13.1353 42.5773C15.0971 42.9675 17.1306 42.7672 18.9785 42.0018C20.8265 41.2363 22.406 39.94 23.5173 38.2769C24.6285 36.6138 25.2217 34.6585 25.2217 32.6583C25.2184 29.977 24.1518 27.4066 22.2559 25.5107C20.36 23.6147 17.7896 22.5482 15.1083 22.5449ZM19.61 39.7376L19.1783 39.9843H19.092C18.8804 40.1034 18.6621 40.2105 18.4383 40.3049L17.7847 40.5516L17.4393 40.6626C17.2409 40.7235 17.0391 40.7729 16.835 40.8106C16.5833 40.8697 16.3278 40.9109 16.0703 40.9339C16.0093 40.9462 15.9464 40.9462 15.8853 40.9339C15.3694 40.9994 14.8473 40.9994 14.3313 40.9339C14.2703 40.9462 14.2074 40.9462 14.1463 40.9339C13.8889 40.9109 13.6333 40.8697 13.3817 40.8106C13.1775 40.7729 12.9758 40.7235 12.7773 40.6626L12.432 40.5516L11.7783 40.3049C11.5472 40.2274 11.3208 40.1368 11.1 40.0336H11.0137L10.582 39.7869L10.7177 39.0099V38.8989C10.8132 38.4594 11.0561 38.0657 11.406 37.7831C11.7559 37.5005 12.1919 37.3459 12.6417 37.3449H17.4763C17.9244 37.3453 18.359 37.4981 18.7087 37.7783C19.0584 38.0585 19.3023 38.4494 19.4003 38.8866V38.9976L19.536 39.7869L19.61 39.7376ZM21.1393 38.5043C20.9617 37.6774 20.5063 36.9364 19.8487 36.4045C19.1912 35.8727 18.3714 35.5821 17.5257 35.5813H12.691C11.8487 35.5809 11.0315 35.8679 10.3745 36.3949C9.71741 36.9219 9.25983 37.6573 9.07733 38.4796C7.5589 36.9233 6.71288 34.8326 6.72167 32.6583C6.72167 30.434 7.60526 28.3008 9.17806 26.728C10.7509 25.1552 12.884 24.2716 15.1083 24.2716C17.3326 24.2716 19.4658 25.1552 21.0386 26.728C22.6114 28.3008 23.495 30.434 23.495 32.6583C23.5038 34.8326 22.6578 36.9233 21.1393 38.4796V38.5043Z" fill="black"/>
<path d="M15.1084 34.3854C16.8112 34.3854 18.1917 33.005 18.1917 31.3021C18.1917 29.5992 16.8112 28.2188 15.1084 28.2188C13.4055 28.2188 12.025 29.5992 12.025 31.3021C12.025 33.005 13.4055 34.3854 15.1084 34.3854Z" fill="black"/>
<path d="M37 35.7917C38.7028 35.7917 40.0833 34.4112 40.0833 32.7083C40.0833 31.0055 38.7028 29.625 37 29.625C35.2971 29.625 33.9166 31.0055 33.9166 32.7083C33.9166 34.4112 35.2971 35.7917 37 35.7917Z" fill="black"/>
<path d="M39.4666 37.0004H34.5333C33.6501 36.988 32.7915 37.2921 32.1129 37.8576C31.4343 38.4231 30.9804 39.2127 30.8333 40.0837L30.4633 42.353C30.4183 42.6129 30.4326 42.8795 30.505 43.133C30.5775 43.3866 30.7062 43.6205 30.8817 43.8173C31.0572 44.0142 31.2749 44.1688 31.5185 44.2698C31.7621 44.3707 32.0254 44.4154 32.2886 44.4004H41.7113C41.9664 44.4004 42.2184 44.3448 42.4498 44.2373C42.6811 44.1298 42.8862 43.9731 43.0506 43.7781C43.2151 43.5831 43.3349 43.3546 43.4019 43.1084C43.4688 42.8622 43.4811 42.6044 43.438 42.353L43.068 40.0837C42.9236 39.2294 42.4841 38.4529 41.826 37.8895C41.1679 37.326 40.3329 37.0114 39.4666 37.0004Z" fill="black"/>
</g>
<defs>
<clipPath id="clip0_1818_256">
<rect width="74" height="74" fill="white"/>
</clipPath>
</defs>
</svg>
