<svg width="74" height="74" viewBox="0 0 74 74" fill="none" xmlns="http://www.w3.org/2000/svg">
<g clip-path="url(#clip0_1818_239)">
<path d="M51.948 21.1516C53.2967 21.1516 54.39 20.0583 54.39 18.7096C54.39 17.3609 53.2967 16.2676 51.948 16.2676C50.5993 16.2676 49.506 17.3609 49.506 18.7096C49.506 20.0583 50.5993 21.1516 51.948 21.1516Z" fill="black"/>
<path d="M53.8597 22.0762H50.0487C49.352 22.0739 48.6777 22.3216 48.1482 22.7742C47.6186 23.2268 47.2689 23.8544 47.1627 24.5429L46.5953 27.9469H57.313L56.7333 24.5182C56.6221 23.8363 56.2719 23.2163 55.7455 22.7689C55.219 22.3215 54.5506 22.076 53.8597 22.0762Z" fill="black"/>
<path d="M51.948 11.4825C53.3408 11.4825 54.7201 11.7569 56.007 12.2899C57.2938 12.8229 58.4631 13.6042 59.448 14.5891C60.4329 15.5741 61.2142 16.7433 61.7472 18.0302C62.2803 19.3171 62.5546 20.6963 62.5546 22.0892C62.5546 23.4821 62.2803 24.8613 61.7472 26.1482C61.2142 27.435 60.4329 28.6043 59.448 29.5892C58.4631 30.5742 57.2938 31.3554 56.007 31.8885C54.7201 32.4215 53.3408 32.6959 51.948 32.6959H41.3413V22.0892C41.3446 19.2771 42.4631 16.5812 44.4515 14.5928C46.4399 12.6043 49.1359 11.4858 51.948 11.4825ZM51.948 9.75586C48.677 9.75586 45.5399 11.0553 43.227 13.3682C40.914 15.6812 39.6146 18.8182 39.6146 22.0892V34.4225H51.948C55.219 34.4225 58.356 33.1231 60.6689 30.8102C62.9819 28.4972 64.2813 25.3602 64.2813 22.0892C64.2813 18.8182 62.9819 15.6812 60.6689 13.3682C58.356 11.0553 55.219 9.75586 51.948 9.75586Z" fill="black"/>
<path d="M22.0766 50.9992C23.4253 50.9992 24.5186 49.9059 24.5186 48.5572C24.5186 47.2086 23.4253 46.1152 22.0766 46.1152C20.728 46.1152 19.6346 47.2086 19.6346 48.5572C19.6346 49.9059 20.728 50.9992 22.0766 50.9992Z" fill="black"/>
<path d="M23.9883 51.9238H20.1773C19.4807 51.9216 18.8064 52.1693 18.2768 52.6219C17.7473 53.0745 17.3976 53.702 17.2913 54.3905L16.724 57.7945H27.4417L26.8743 54.3905C26.7681 53.702 26.4184 53.0745 25.8888 52.6219C25.3593 52.1693 24.685 51.9216 23.9883 51.9238Z" fill="black"/>
<path d="M32.6833 41.3282V51.9349C32.6833 54.0327 32.0612 56.0834 30.8957 57.8276C29.7303 59.5719 28.0737 60.9314 26.1356 61.7342C24.1975 62.537 22.0649 62.747 20.0074 62.3378C17.9499 61.9285 16.0599 60.9183 14.5766 59.4349C13.0932 57.9516 12.083 56.0616 11.6738 54.0042C11.2645 51.9467 11.4745 49.814 12.2773 47.8759C13.0801 45.9378 14.4396 44.2813 16.1839 43.1158C17.9281 41.9503 19.9788 41.3282 22.0766 41.3282H32.6833ZM34.41 39.6016H22.0766C19.6373 39.6016 17.2528 40.3249 15.2246 41.6801C13.1964 43.0353 11.6156 44.9615 10.6821 47.2151C9.74863 49.4688 9.50439 51.9486 9.98027 54.341C10.4562 56.7334 11.6308 58.931 13.3556 60.6559C15.0805 62.3807 17.2781 63.5554 19.6705 64.0312C22.0629 64.5071 24.5428 64.2629 26.7964 63.3294C29.05 62.3959 30.9762 60.8151 32.3314 58.7869C33.6866 56.7587 34.41 54.3742 34.41 51.9349V39.6016Z" fill="black"/>
<path d="M51.911 50.9992C53.2597 50.9992 54.353 49.9059 54.353 48.5572C54.353 47.2086 53.2597 46.1152 51.911 46.1152C50.5623 46.1152 49.469 47.2086 49.469 48.5572C49.469 49.9059 50.5623 50.9992 51.911 50.9992Z" fill="black"/>
<path d="M53.8104 51.9243H49.9994C49.3027 51.922 48.6284 52.1697 48.0988 52.6223C47.5693 53.0749 47.2196 53.7025 47.1134 54.3909L46.546 57.7949H57.2637L56.7334 54.3663C56.6208 53.6759 56.2635 53.0492 55.7267 52.6008C55.19 52.1523 54.5097 51.9122 53.8104 51.9243Z" fill="black"/>
<path d="M51.911 41.3282C54.0088 41.3282 56.0595 41.9503 57.8037 43.1158C59.548 44.2813 60.9075 45.9378 61.7103 47.8759C62.513 49.814 62.7231 51.9467 62.3138 54.0042C61.9046 56.0616 60.8944 57.9516 59.411 59.4349C57.9276 60.9183 56.0377 61.9285 53.9802 62.3378C51.9227 62.747 49.7901 62.537 47.852 61.7342C45.9139 60.9314 44.2573 59.5719 43.0918 57.8276C41.9264 56.0834 41.3043 54.0327 41.3043 51.9349V41.3282H51.911ZM51.911 39.6016H39.5776V51.9349C39.5776 54.3742 40.301 56.7587 41.6562 58.7869C43.0114 60.8151 44.9376 62.3959 47.1912 63.3294C49.4448 64.2629 51.9247 64.5071 54.3171 64.0312C56.7095 63.5554 58.9071 62.3807 60.632 60.6559C62.3568 58.931 63.5314 56.7334 64.0073 54.341C64.4832 51.9486 64.239 49.4688 63.3055 47.2151C62.372 44.9615 60.7912 43.0353 58.763 41.6801C56.7348 40.3249 54.3503 39.6016 51.911 39.6016Z" fill="black"/>
<path d="M34.3853 22.0638V34.3971H22.052C19.6127 34.3971 17.2281 33.6738 15.1999 32.3186C13.1717 30.9634 11.5909 29.0372 10.6575 26.7836C9.72397 24.5299 9.47973 22.0501 9.95562 19.6577C10.4315 17.2653 11.6061 15.0677 13.331 13.3428C15.0558 11.618 17.2534 10.4433 19.6459 9.96746C22.0383 9.49157 24.5181 9.73581 26.7717 10.6693C29.0254 11.6028 30.9516 13.1836 32.3068 15.2118C33.662 17.24 34.3853 19.6245 34.3853 22.0638Z" fill="black"/>
<path d="M17.4394 23.3104C18.1205 23.3104 18.6727 22.7582 18.6727 22.0771C18.6727 21.3959 18.1205 20.8438 17.4394 20.8438C16.7582 20.8438 16.2061 21.3959 16.2061 22.0771C16.2061 22.7582 16.7582 23.3104 17.4394 23.3104Z" fill="white"/>
<path d="M22.0644 23.3104C22.7455 23.3104 23.2977 22.7582 23.2977 22.0771C23.2977 21.3959 22.7455 20.8438 22.0644 20.8438C21.3832 20.8438 20.8311 21.3959 20.8311 22.0771C20.8311 22.7582 21.3832 23.3104 22.0644 23.3104Z" fill="white"/>
<path d="M26.6771 23.3104C27.3582 23.3104 27.9104 22.7582 27.9104 22.0771C27.9104 21.3959 27.3582 20.8438 26.6771 20.8438C25.9959 20.8438 25.4437 21.3959 25.4437 22.0771C25.4437 22.7582 25.9959 23.3104 26.6771 23.3104Z" fill="white"/>
</g>
<defs>
<clipPath id="clip0_1818_239">
<rect width="74" height="74" fill="white"/>
</clipPath>
</defs>
</svg>
