<svg width="74" height="74" viewBox="0 0 74 74" fill="none" xmlns="http://www.w3.org/2000/svg">
<g clip-path="url(#clip0_1818_223)">
<path d="M44.8934 8.44923H20.0417C18.396 8.44649 16.7981 9.00264 15.5097 10.0266C14.2214 11.0506 13.3189 12.4817 12.9501 14.0856L9.75572 15.4546C7.98379 16.2146 6.58592 17.6467 5.86907 19.4365C5.15222 21.2264 5.17499 23.2275 5.93239 25.0006L12.7651 41.0339V53.9716C12.7651 55.9015 13.5317 57.7523 14.8963 59.1169C16.261 60.4816 18.1118 61.2482 20.0417 61.2482H44.8934C46.6834 61.2436 48.4089 60.5794 49.7399 59.3826C51.071 58.1858 51.9142 56.5403 52.1084 54.7609C52.1272 54.4981 52.1272 54.2343 52.1084 53.9716V15.7382C52.115 13.8159 51.3593 11.9693 50.0069 10.603C48.6545 9.23676 46.8157 8.46227 44.8934 8.44923ZM12.8267 36.5816L7.52339 24.3222C6.94669 22.9711 6.92923 21.4464 7.47484 20.0823C8.02045 18.7183 9.08461 17.6263 10.4341 17.0456L12.7651 16.0342L12.8267 36.5816ZM50.4927 53.9716C50.4901 54.5184 50.4112 55.0622 50.2584 55.5872C49.9123 56.7245 49.2102 57.7206 48.2555 58.4289C47.3008 59.1372 46.1438 59.5202 44.9551 59.5216H20.0417C18.5708 59.5183 17.161 58.9325 16.1209 57.8924C15.0808 56.8523 14.495 55.4425 14.4917 53.9716V15.7382C14.4917 15.6026 14.4917 15.4669 14.4917 15.3312C14.5512 14.5833 14.7565 13.8543 15.0961 13.1852C15.5693 12.2862 16.2787 11.5332 17.1479 11.0073C18.0172 10.4814 19.0134 10.2025 20.0294 10.2006H44.8934C46.3621 10.2006 47.7706 10.784 48.8091 11.8225C49.8476 12.861 50.4311 14.2695 50.4311 15.7382L50.4927 53.9716Z" fill="black"/>
<path d="M16.5884 65.5513C22.8686 65.5513 27.9597 60.4601 27.9597 54.1799C27.9597 47.8997 22.8686 42.8086 16.5884 42.8086C10.3082 42.8086 5.21704 47.8997 5.21704 54.1799C5.21704 60.4601 10.3082 65.5513 16.5884 65.5513Z" fill="black"/>
<path d="M11.4823 53.8218L15.5523 57.5465L21.6943 50.8125" fill="black"/>
<path d="M15.5893 58.4108L11.0999 54.2668C11.04 54.2118 10.9915 54.1454 10.9572 54.0716C10.9229 53.9978 10.9035 53.918 10.9001 53.8367C10.8932 53.6725 10.9517 53.5122 11.0629 53.3912C11.1742 53.2702 11.3289 53.1983 11.4931 53.1913C11.6573 53.1844 11.8176 53.243 11.9386 53.3542L15.5029 56.7335L21.2379 50.4558C21.2953 50.398 21.3635 50.3522 21.4386 50.3209C21.5138 50.2896 21.5944 50.2734 21.6758 50.2734C21.7572 50.2734 21.8378 50.2896 21.9129 50.3209C21.9881 50.3522 22.0563 50.398 22.1136 50.4558C22.171 50.5121 22.2167 50.5793 22.2478 50.6534C22.279 50.7275 22.295 50.8071 22.295 50.8875C22.295 50.9679 22.279 51.0475 22.2478 51.1216C22.2167 51.1957 22.171 51.2629 22.1136 51.3192L15.5893 58.4108Z" fill="white"/>
<path d="M44.6714 18.747H18.6727C18.5101 18.7438 18.3551 18.6779 18.2401 18.5629C18.1252 18.4479 18.0592 18.2929 18.056 18.1303C18.056 17.9668 18.121 17.8099 18.2366 17.6943C18.3523 17.5786 18.5091 17.5137 18.6727 17.5137H44.6714C44.8349 17.5137 44.9918 17.5786 45.1074 17.6943C45.2231 17.8099 45.288 17.9668 45.288 18.1303C45.288 18.2939 45.2231 18.4507 45.1074 18.5664C44.9918 18.682 44.8349 18.747 44.6714 18.747Z" fill="black"/>
<path d="M44.6714 22.8036H18.6727C18.5091 22.8036 18.3523 22.7387 18.2366 22.623C18.121 22.5074 18.056 22.3505 18.056 22.187C18.0592 22.0244 18.1252 21.8694 18.2401 21.7544C18.3551 21.6395 18.5101 21.5735 18.6727 21.5703H44.6714C44.8349 21.5703 44.9918 21.6353 45.1074 21.7509C45.2231 21.8666 45.288 22.0234 45.288 22.187C45.288 22.3505 45.2231 22.5074 45.1074 22.623C44.9918 22.7387 44.8349 22.8036 44.6714 22.8036Z" fill="black"/>
<path d="M44.6714 27.454H33.6454C33.4828 27.4509 33.3278 27.3849 33.2128 27.2699C33.0978 27.155 33.0318 26.9999 33.0287 26.8374C33.0287 26.6738 33.0937 26.517 33.2093 26.4013C33.325 26.2857 33.4818 26.2207 33.6454 26.2207H44.6714C44.8349 26.2207 44.9918 26.2857 45.1074 26.4013C45.2231 26.517 45.288 26.6738 45.288 26.8374C45.288 27.0009 45.2231 27.1578 45.1074 27.2734C44.9918 27.3891 44.8349 27.454 44.6714 27.454Z" fill="black"/>
<path d="M40.6013 53.2915C39.6305 53.2166 38.7036 52.8561 37.9373 52.2555C36.9999 51.6141 36.1613 51.5031 35.1623 52.9585C35.1161 53.0257 35.0572 53.0831 34.9888 53.1276C34.9204 53.172 34.844 53.2025 34.7638 53.2174C34.6837 53.2323 34.6013 53.2313 34.5216 53.2144C34.4418 53.1974 34.3662 53.165 34.2989 53.1188C34.2317 53.0726 34.1743 53.0137 34.1298 52.9453C34.0854 52.877 34.0549 52.8005 34.04 52.7203C34.0251 52.6402 34.0261 52.5579 34.0431 52.4781C34.06 52.3983 34.0925 52.3227 34.1386 52.2555C35.7049 49.9738 37.4439 50.4425 38.6279 51.2195C39.8119 51.9965 40.7863 52.4528 42.0689 51.4168C42.8368 50.8689 43.473 50.1569 43.9313 49.3325C43.9869 49.1788 44.1014 49.0535 44.2494 48.9841C44.3974 48.9147 44.5669 48.9069 44.7206 48.9625C44.8723 49.0208 44.9956 49.1355 45.0645 49.2826C45.1335 49.4298 45.1429 49.5979 45.0906 49.7518C44.5667 50.8103 43.797 51.7279 42.846 52.4281C42.2236 52.9727 41.4282 53.2787 40.6013 53.2915Z" fill="black"/>
<path d="M47.841 46.8799C52.7929 46.8799 56.8073 42.8656 56.8073 37.9136C56.8073 32.9616 52.7929 28.9473 47.841 28.9473C42.889 28.9473 38.8746 32.9616 38.8746 37.9136C38.8746 42.8656 42.889 46.8799 47.841 46.8799Z" fill="white"/>
<path d="M47.8409 47.4961C45.9456 47.4961 44.0928 46.934 42.5169 45.8811C40.941 44.8281 39.7127 43.3314 38.9874 41.5803C38.2621 39.8293 38.0723 37.9025 38.4421 36.0435C38.8118 34.1846 39.7245 32.4771 41.0647 31.1369C42.4049 29.7967 44.1125 28.884 45.9714 28.5142C47.8303 28.1445 49.7571 28.3342 51.5082 29.0595C53.2593 29.7849 54.7559 31.0131 55.8089 32.5891C56.8619 34.165 57.4239 36.0177 57.4239 37.9131C57.4174 40.4526 56.4057 42.8863 54.61 44.6821C52.8142 46.4778 50.3805 47.4896 47.8409 47.4961ZM47.8409 29.5634C46.1895 29.5634 44.5752 30.0531 43.2021 30.9706C41.829 31.8881 40.7588 33.1921 40.1269 34.7178C39.4949 36.2435 39.3295 37.9223 39.6517 39.542C39.9739 41.1617 40.7691 42.6495 41.9368 43.8172C43.1046 44.9849 44.5923 45.7801 46.212 46.1023C47.8317 46.4245 49.5105 46.2591 51.0362 45.6272C52.5619 44.9952 53.866 43.925 54.7834 42.5519C55.7009 41.1788 56.1906 39.5645 56.1906 37.9131C56.1776 35.706 55.2925 33.5936 53.7284 32.0365C52.1643 30.4793 50.048 29.6036 47.8409 29.6004V29.5634Z" fill="black"/>
<path d="M65.1817 58.5349C64.7073 58.535 64.2375 58.4413 63.7994 58.2593C63.3612 58.0773 62.9634 57.8105 62.6287 57.4742L57.128 51.9736C56.7928 51.6391 56.5267 51.2419 56.3449 50.8046C56.1631 50.3673 56.0693 49.8985 56.0687 49.4249C56.0682 48.9514 56.1609 48.4823 56.3416 48.0446C56.5223 47.6069 56.7874 47.209 57.1219 46.8737C57.4563 46.5385 57.8535 46.2724 58.2908 46.0906C58.7281 45.9089 59.1969 45.815 59.6705 45.8145C60.1441 45.8139 60.6131 45.9066 61.0508 46.0873C61.4886 46.268 61.8864 46.5331 62.2217 46.8676L67.7224 52.3682C68.0583 52.7018 68.325 53.0986 68.507 53.5357C68.6889 53.9728 68.7826 54.4416 68.7826 54.9151C68.7826 55.3885 68.6889 55.8573 68.507 56.2944C68.325 56.7315 68.0583 57.1283 67.7224 57.4619C67.391 57.8 66.9957 58.069 66.5596 58.2531C66.1235 58.4373 65.6551 58.5331 65.1817 58.5349ZM59.681 47.0526C59.2087 47.044 58.7445 47.1768 58.3483 47.4341C57.9521 47.6913 57.6418 48.0612 57.4575 48.4962C57.2732 48.9312 57.2232 49.4114 57.3139 49.875C57.4046 50.3386 57.632 50.7645 57.9667 51.0979L63.4674 56.5986C63.9235 57.0216 64.5226 57.2567 65.1447 57.2567C65.7668 57.2567 66.3659 57.0216 66.822 56.5986C67.0428 56.3789 67.2176 56.1175 67.3362 55.8295C67.4548 55.5415 67.5148 55.2327 67.5127 54.9212C67.5115 54.2932 67.2635 53.6907 66.822 53.2439L61.3214 47.7432C60.8796 47.3169 60.2947 47.0706 59.681 47.0526Z" fill="black"/>
<path d="M54.7693 43.6318L53.8972 44.5039L57.4467 48.0533L58.3188 47.1812L54.7693 43.6318Z" fill="black"/>
</g>
<defs>
<clipPath id="clip0_1818_223">
<rect width="74" height="74" fill="white"/>
</clipPath>
</defs>
</svg>
