<svg width="74" height="74" viewBox="0 0 74 74" fill="none" xmlns="http://www.w3.org/2000/svg">
<g clip-path="url(#clip0_1818_203)">
<path d="M64.2814 55.1055H32.2147V56.8321H64.2814V55.1055Z" fill="black"/>
<path d="M57.8186 61.6661H46.1143C45.8853 61.6661 45.6657 61.5752 45.5038 61.4133C45.3419 61.2514 45.251 61.0318 45.251 60.8028C45.251 60.5738 45.3419 60.3542 45.5038 60.1923C45.6657 60.0304 45.8853 59.9395 46.1143 59.9395H57.8186C58.0476 59.9395 58.2672 60.0304 58.4291 60.1923C58.591 60.3542 58.682 60.5738 58.682 60.8028C58.682 61.0318 58.591 61.2514 58.4291 61.4133C58.2672 61.5752 58.0476 61.6661 57.8186 61.6661Z" fill="black"/>
<path d="M43.0557 61.6661H39.1954C38.9664 61.6661 38.7468 61.5752 38.5849 61.4133C38.423 61.2514 38.332 61.0318 38.332 60.8028C38.332 60.5738 38.423 60.3542 38.5849 60.1923C38.7468 60.0304 38.9664 59.9395 39.1954 59.9395H43.0557C43.2847 59.9395 43.5043 60.0304 43.6662 60.1923C43.8281 60.3542 43.919 60.5738 43.919 60.8028C43.919 61.0318 43.8281 61.2514 43.6662 61.4133C43.5043 61.5752 43.2847 61.6661 43.0557 61.6661Z" fill="black"/>
<path d="M48.248 37.9618C48.6139 37.9618 48.9716 38.0703 49.2758 38.2736C49.58 38.4769 49.8172 38.7658 49.9572 39.1039C50.0972 39.4419 50.1338 39.8139 50.0625 40.1728C49.9911 40.5316 49.8149 40.8613 49.5562 41.12C49.2974 41.3787 48.9678 41.5549 48.6089 41.6263C48.2501 41.6977 47.8781 41.661 47.54 41.521C47.202 41.381 46.9131 41.1439 46.7098 40.8397C46.5065 40.5354 46.398 40.1777 46.398 39.8118C46.398 39.3212 46.5929 38.8506 46.9399 38.5037C47.2868 38.1568 47.7574 37.9618 48.248 37.9618ZM48.248 36.7285C47.6382 36.7285 47.0421 36.9093 46.535 37.2482C46.0279 37.587 45.6328 38.0685 45.3994 38.6319C45.166 39.1953 45.1049 39.8153 45.2239 40.4134C45.3429 41.0115 45.6365 41.5609 46.0678 41.9921C46.499 42.4233 47.0484 42.717 47.6465 42.8359C48.2446 42.9549 48.8645 42.8938 49.4279 42.6605C49.9914 42.4271 50.4729 42.0319 50.8117 41.5249C51.1505 41.0178 51.3313 40.4217 51.3313 39.8118C51.3313 38.9941 51.0065 38.2098 50.4283 37.6316C49.85 37.0534 49.0658 36.7285 48.248 36.7285Z" fill="black"/>
<path d="M50.6653 45.3001C51.2547 45.292 51.8275 45.4953 52.28 45.8731C52.7325 46.2509 53.0347 46.7783 53.132 47.3597L53.6129 50.2334H42.9199L43.4009 47.3597C43.4982 46.7783 43.8004 46.2509 44.2529 45.8731C44.7053 45.4953 45.2782 45.292 45.8676 45.3001H50.7023M50.7023 44.0667H45.8306C44.9456 44.0549 44.0856 44.3607 43.4067 44.9286C42.7279 45.4966 42.2751 46.2892 42.1306 47.1624L41.4153 51.4667H54.9819L54.2666 47.1624C54.1221 46.2892 53.6694 45.4966 52.9905 44.9286C52.3116 44.3607 51.4517 44.0549 50.5666 44.0667H50.7023Z" fill="black"/>
<path d="M32.2147 31.5371V66.0704H64.2814V31.5371H32.2147ZM62.5547 64.3314H33.9414V33.3008H62.5547V64.3314Z" fill="black"/>
<path d="M9.71863 7.92969V42.463H33.9413V40.6994H11.4453V9.65635H40.0586V33.2994H41.7853V7.92969H9.71863Z" fill="black"/>
<path d="M28.8354 33.2267H11.1C10.8711 33.2267 10.6515 33.1357 10.4896 32.9738C10.3277 32.8119 10.2367 32.5923 10.2367 32.3633C10.2367 32.1344 10.3277 31.9148 10.4896 31.7529C10.6515 31.591 10.8711 31.5 11.1 31.5H28.8354C29.0643 31.5 29.2839 31.591 29.4458 31.7529C29.6077 31.9148 29.6987 32.1344 29.6987 32.3633C29.6987 32.5923 29.6077 32.8119 29.4458 32.9738C29.2839 33.1357 29.0643 33.2267 28.8354 33.2267Z" fill="black"/>
<path d="M24.4323 38.0978H13.3323C13.1034 38.0978 12.8838 38.0068 12.7219 37.8449C12.56 37.683 12.469 37.4634 12.469 37.2344C12.469 37.0055 12.56 36.7859 12.7219 36.624C12.8838 36.4621 13.1034 36.3711 13.3323 36.3711H24.4323C24.6613 36.3711 24.8809 36.4621 25.0428 36.624C25.2047 36.7859 25.2957 37.0055 25.2957 37.2344C25.2957 37.4634 25.2047 37.683 25.0428 37.8449C24.8809 38.0068 24.6613 38.0978 24.4323 38.0978Z" fill="black"/>
<path d="M32.5476 38.0978H27.6143C27.3853 38.0978 27.1657 38.0068 27.0038 37.8449C26.8419 37.683 26.751 37.4634 26.751 37.2344C26.751 37.0055 26.8419 36.7859 27.0038 36.624C27.1657 36.4621 27.3853 36.3711 27.6143 36.3711H32.5476C32.7766 36.3711 32.9962 36.4621 33.1581 36.624C33.32 36.7859 33.411 37.0055 33.411 37.2344C33.411 37.4634 33.32 37.683 33.1581 37.8449C32.9962 38.0068 32.7766 38.0978 32.5476 38.0978Z" fill="black"/>
<path d="M25.752 19.2897C27.4549 19.2897 28.8354 17.9093 28.8354 16.2064C28.8354 14.5035 27.4549 13.123 25.752 13.123C24.0492 13.123 22.6687 14.5035 22.6687 16.2064C22.6687 17.9093 24.0492 19.2897 25.752 19.2897Z" fill="black"/>
<path d="M28.1693 20.473H23.3346C22.4514 20.4607 21.5929 20.7647 20.9143 21.3302C20.2357 21.8957 19.7818 22.6854 19.6346 23.5564L18.9193 27.873H32.486L31.7706 23.5564C31.6263 22.7021 31.1868 21.9256 30.5287 21.3621C29.8706 20.7987 29.0356 20.484 28.1693 20.473Z" fill="black"/>
<path d="M54.4146 26.7011L48.7536 21.0401C48.0366 20.3191 47.6342 19.3436 47.6342 18.3268C47.6342 17.31 48.0366 16.3345 48.7536 15.6135C49.4831 14.9175 50.4526 14.5293 51.4608 14.5293C52.469 14.5293 53.4384 14.9175 54.1679 15.6135L54.4146 15.8601L54.6613 15.6135C55.3908 14.9175 56.3603 14.5293 57.3684 14.5293C58.3766 14.5293 59.3461 14.9175 60.0756 15.6135C60.4321 15.9697 60.7149 16.3927 60.9079 16.8582C61.1008 17.3238 61.2002 17.8228 61.2002 18.3268C61.2002 18.8308 61.1008 19.3298 60.9079 19.7954C60.7149 20.2609 60.4321 20.6839 60.0756 21.0401L54.4146 26.7011ZM51.4546 15.7368C50.9405 15.7343 50.4373 15.8848 50.0091 16.1693C49.5809 16.4537 49.247 16.8591 49.0499 17.3339C48.8528 17.8087 48.8015 18.3314 48.9025 18.8355C49.0035 19.3396 49.2522 19.8022 49.6169 20.1645L54.4146 24.9498L59.1999 20.1645C59.4461 19.9233 59.6416 19.6355 59.7751 19.3178C59.9086 19.0001 59.9773 18.659 59.9773 18.3145C59.9773 17.9699 59.9086 17.6288 59.7751 17.3111C59.6416 16.9934 59.4461 16.7056 59.1999 16.4645C58.7019 15.988 58.0392 15.7221 57.3499 15.7221C56.6607 15.7221 55.998 15.988 55.4999 16.4645L54.3899 17.5868L53.2676 16.4645C52.7814 15.9945 52.1308 15.7334 51.4546 15.7368Z" fill="black"/>
<path d="M25.0983 63.7625C24.8693 63.7625 24.6498 63.6715 24.4878 63.5096C24.3259 63.3477 24.235 63.1281 24.235 62.8991V56.7325C24.235 56.6191 24.2573 56.5068 24.3007 56.4021C24.3441 56.2973 24.4077 56.2022 24.4878 56.122C24.568 56.0418 24.6632 55.9782 24.7679 55.9349C24.8727 55.8915 24.9849 55.8691 25.0983 55.8691C25.2117 55.8691 25.324 55.8915 25.4287 55.9349C25.5334 55.9782 25.6286 56.0418 25.7088 56.122C25.789 56.2022 25.8525 56.2973 25.8959 56.4021C25.9393 56.5068 25.9617 56.6191 25.9617 56.7325V62.8991C25.9617 63.1281 25.8707 63.3477 25.7088 63.5096C25.5469 63.6715 25.3273 63.7625 25.0983 63.7625Z" fill="black"/>
<path d="M18.9934 51.4923H12.8267C12.5977 51.4923 12.3782 51.4013 12.2162 51.2394C12.0543 51.0775 11.9634 50.8579 11.9634 50.629C11.9634 50.4 12.0543 50.1804 12.2162 50.0185C12.3782 49.8566 12.5977 49.7656 12.8267 49.7656H18.9934C19.2223 49.7656 19.4419 49.8566 19.6038 50.0185C19.7658 50.1804 19.8567 50.4 19.8567 50.629C19.8567 50.8579 19.7658 51.0775 19.6038 51.2394C19.4419 51.4013 19.2223 51.4923 18.9934 51.4923Z" fill="black"/>
<path d="M16.1691 60.4328C16.056 60.4333 15.944 60.4106 15.84 60.366C15.7361 60.3215 15.6424 60.256 15.5647 60.1738C15.4811 60.0943 15.4146 59.9987 15.3691 59.8927C15.3236 59.7867 15.3002 59.6725 15.3002 59.5572C15.3002 59.4418 15.3236 59.3277 15.3691 59.2216C15.4146 59.1156 15.4811 59.02 15.5647 58.9405L19.9184 54.5868C19.9979 54.5032 20.0935 54.4367 20.1995 54.3912C20.3056 54.3457 20.4197 54.3223 20.5351 54.3223C20.6504 54.3223 20.7646 54.3457 20.8706 54.3912C20.9766 54.4367 21.0722 54.5032 21.1517 54.5868C21.3144 54.7508 21.4057 54.9725 21.4057 55.2035C21.4057 55.4345 21.3144 55.6561 21.1517 55.8201L16.7981 60.1738C16.7162 60.2573 16.6183 60.3234 16.5101 60.3679C16.402 60.4124 16.286 60.4345 16.1691 60.4328Z" fill="black"/>
</g>
<defs>
<clipPath id="clip0_1818_203">
<rect width="74" height="74" fill="white"/>
</clipPath>
</defs>
</svg>
