<svg width="77" height="28" viewBox="0 0 77 28" fill="none" xmlns="http://www.w3.org/2000/svg">
<path d="M16.0541 0.0620766C15.6792 0.172743 14.1554 0.984299 13.5386 1.40237C11.5976 2.72422 9.38452 5.03593 7.1049 8.14074C5.01274 10.9812 3.71269 13.379 2.33404 16.9142C1.45726 19.1767 0.374897 22.7918 0.0423271 24.5747L0 24.7715L1.48749 24.7592L2.97499 24.7407L3.17453 23.757C3.54338 21.9372 4.31132 19.0291 4.78296 17.6704C5.56903 15.3771 7.51608 11.8112 9.10032 9.73926C9.64453 9.03222 10.358 8.24526 10.9143 7.73497C11.4585 7.24311 11.779 6.99719 11.7004 7.13245C11.6702 7.17548 11.5492 7.37222 11.4344 7.55667C10.9325 8.36208 10.3218 9.97289 10.1222 11.0488C9.83198 12.549 10.1101 13.9938 10.872 14.9713C11.2227 15.4263 11.5916 15.58 12.3353 15.58C12.9884 15.58 13.4056 15.4386 14.0042 15.0205C14.3852 14.7562 15.1954 13.9139 15.6006 13.3667C16.1266 12.6535 21.0487 6.22867 21.2905 5.93971C21.4235 5.77985 21.5566 5.65074 21.5929 5.65074C21.6957 5.65074 21.6473 6.08726 21.4115 7.17548C20.7161 10.3602 20.3896 12.2662 20.0993 14.9344C19.9481 16.2809 19.9481 18.9676 20.0933 19.8222C20.2868 20.9289 20.6496 21.9064 20.9942 22.2323L21.1394 22.3676L22.1794 21.3101L23.2194 20.2526L23.1227 19.9452C22.9897 19.5271 22.9413 17.197 23.032 15.8505C23.1952 13.5081 23.679 10.5877 24.592 6.41926C25.0214 4.45185 25.0516 4.27356 25.0758 3.40667C25.1181 2.04793 24.9548 1.44541 24.4106 0.935114C24.0841 0.627707 23.7636 0.523188 23.1892 0.517038C22.6873 0.517038 22.2761 0.689188 21.7077 1.13185C21.2421 1.50074 21.3631 1.34704 16.9611 6.84963C14.8749 9.4503 13.1456 11.5899 13.1153 11.6022C13.0005 11.6452 13.067 11.0857 13.2423 10.5631C13.6777 9.22897 15.1773 6.71437 17.2271 3.86778C18.4062 2.23237 18.5332 1.85119 18.1765 1.05193C17.862 0.363335 17.2755 -0.0117016 16.5438 0.000595093C16.3745 0.000595093 16.1569 0.0313358 16.0541 0.0620766Z" fill="white"/>
<path d="M44.6494 1.13153C44.3954 1.58035 43.8391 2.86531 43.2042 4.48227C42.8777 5.31227 42.6056 6.00087 42.5935 6.01316C42.5814 6.02546 42.0009 6.09924 41.2995 6.17302C40.5981 6.24679 40.0176 6.32057 40.0055 6.33287C39.9692 6.3759 39.4613 9.94798 39.4915 9.97872C39.5036 9.99102 40.0176 9.89265 40.6283 9.76353C41.2451 9.63442 41.753 9.5299 41.7591 9.5422C41.7651 9.54835 41.7349 9.83116 41.6865 10.1693C41.3963 12.2166 41.5897 14.1902 42.1642 15.1739C42.5814 15.8809 43.4038 16.4773 44.4196 16.797C44.988 16.9815 46.0159 17.1475 46.5541 17.1475C47.8662 17.1475 50.4724 16.588 50.8775 16.2252L51.0589 16.0592L50.4301 14.6329C50.0854 13.8459 49.771 13.1573 49.7286 13.102C49.6682 13.0159 49.6138 13.0098 49.3658 13.0712C49.2026 13.1081 48.6342 13.2434 48.1021 13.3663C47.2858 13.5569 47.056 13.5877 46.5843 13.5692C46.1187 13.5508 45.9857 13.5262 45.6834 13.3663C45.2238 13.1266 45.0061 12.8499 44.9215 12.3826C44.8368 11.9215 44.8913 10.7964 45.0364 10.0341L45.1452 9.47457L44.7945 9.30242C44.595 9.20405 44.4136 9.09953 44.3773 9.0565C44.3047 8.97042 45.2057 8.81672 47.8904 8.47857C48.9728 8.33716 49.91 8.2142 49.9766 8.2019C50.0975 8.17731 50.1156 8.07894 50.2366 6.84316C50.3091 6.10539 50.3635 5.50287 50.3575 5.49672C50.3454 5.49057 49.4263 5.53361 48.3137 5.59509C47.2011 5.65657 46.282 5.69346 46.2639 5.68116C46.1974 5.60739 46.8504 4.04576 47.6969 2.25664L48.1807 1.2299L47.8723 1.19302C47.6969 1.17457 46.9774 1.0885 46.2699 1.00857C45.5624 0.922497 44.9457 0.854866 44.8973 0.854866C44.8489 0.854866 44.7401 0.977829 44.6494 1.13153Z" fill="white"/>
<path d="M65.3955 2.07802C63.7689 2.79736 62.5717 3.7995 62.2814 4.69713C62.1363 5.13365 62.1847 5.85913 62.3963 6.49854C62.62 7.17484 62.7893 7.53143 63.521 8.81639C64.5248 10.5748 64.7424 11.1158 64.6578 11.6507C64.5429 12.4069 63.9261 12.9971 62.5717 13.6427C62.0335 13.8948 60.7637 14.2944 59.2943 14.6633C58.8287 14.7739 58.4478 14.8785 58.4357 14.8846C58.4236 14.9031 59.1432 17.4607 59.1734 17.5037C59.2036 17.5529 61.5135 17.0057 62.2814 16.7721C64.3978 16.1265 65.7764 15.4011 66.6955 14.4481C67.2276 13.8948 67.5542 13.3107 67.6993 12.659C67.7839 12.2839 67.79 12.1487 67.7235 11.7614C67.5723 10.8084 67.1853 9.87388 66.369 8.47825C65.3773 6.79365 65.2685 6.4555 65.5346 5.92676C65.7522 5.4841 66.4597 4.91232 67.2881 4.51884C67.4937 4.42047 67.663 4.31595 67.663 4.29136C67.663 4.22373 66.1574 1.8075 66.1029 1.79521C66.0788 1.78906 65.7643 1.91817 65.3955 2.07802Z" fill="white"/>
<path d="M74.4355 2.39164C72.9722 2.87119 71.4182 3.68275 70.5837 4.39594C70.0154 4.88779 69.3865 5.80386 69.1446 6.50475C68.9814 6.9843 68.9269 7.51305 68.9935 7.99875C69.1204 8.91482 69.4288 9.62801 70.2633 10.9376C71.914 13.5259 72.9843 15.5364 73.2322 16.5139C73.3713 17.0796 73.3834 17.9219 73.2564 18.3522C73.1355 18.7765 72.8513 19.1884 72.3071 19.7417C71.5573 20.4918 70.4568 21.2849 69.4167 21.8198C68.0744 22.5084 65.6919 23.2216 63.6361 23.5413C63.1765 23.615 62.7411 23.695 62.6746 23.7257C62.5718 23.7626 62.5839 23.7872 62.7956 23.8733C63.3277 24.1069 63.9444 24.2299 64.791 24.2606C65.704 24.2975 65.7101 24.3159 64.8817 24.525C64.3133 24.6664 63.3398 24.8139 62.5658 24.8693C61.8644 24.9185 61.7979 24.9738 61.7979 25.5148C61.7979 26.0251 61.9974 26.6338 62.2574 26.892C62.6988 27.3408 63.243 27.3777 64.9966 27.0703C68.3767 26.4862 71.9443 25.1459 73.7159 23.7933C75.2941 22.5883 76.3826 21.0513 76.8361 19.3851C76.9872 18.8379 77.0054 18.6842 76.9993 17.8542C76.9933 17.0734 76.9691 16.8398 76.8361 16.3356C76.4853 14.9769 75.9653 13.9256 74.623 11.8352C73.4559 10.0092 73.1476 9.46816 72.8694 8.71808C72.4945 7.72208 72.7727 7.0089 73.7885 6.36334C74.2662 6.06208 75.2579 5.63786 75.7537 5.52105C75.9291 5.47801 76.0621 5.41653 76.05 5.37964C76.0379 5.34275 75.8021 4.63571 75.5239 3.80571C75.2458 2.97571 75.0039 2.28097 74.9858 2.26253C74.9676 2.23793 74.7197 2.29942 74.4355 2.39164Z" fill="white"/>
<path d="M55.4786 3.03724C54.8799 3.08028 54.3418 3.13561 54.2813 3.16021C54.0939 3.24013 54.0213 3.49221 53.8097 4.77717C53.5799 6.19124 53.5738 6.1728 54.0576 6.10517C54.2088 6.08673 54.886 6.0068 55.5693 5.92687C56.8875 5.77932 56.9902 5.75473 57.0447 5.61332C57.087 5.50265 57.4438 3.36924 57.4438 3.23398C57.4438 3.17865 57.4014 3.09258 57.347 3.04339C57.2382 2.92658 57.0628 2.92658 55.4786 3.03724Z" fill="white"/>
<path d="M32.652 6.40075C31.0436 6.52371 29.671 7.02786 28.4072 7.94393C26.6718 9.20431 25.4625 10.7106 25.1239 12.0325C24.5615 14.2396 25.2992 15.7029 27.2402 16.2378C27.6393 16.3423 27.8993 16.3669 28.7519 16.373C29.7254 16.373 29.804 16.3669 30.2575 16.207C31.4971 15.7644 32.906 14.6331 33.9823 13.219L34.3753 12.7088L34.4177 12.9547C34.4721 13.299 34.5991 13.5265 34.8833 13.7847L35.1251 14.006L35.5363 13.883C35.76 13.8216 36.395 13.6371 36.9452 13.4773C37.4955 13.3236 37.955 13.1822 37.9671 13.176C37.9792 13.1637 37.822 12.9731 37.6224 12.7456C36.9754 12.014 36.9633 11.9771 36.915 10.4462C36.8606 8.62023 36.7275 8.14682 36.0926 7.50742C35.2642 6.68356 34.0428 6.29008 32.652 6.40075ZM32.9967 9.48712C33.0148 9.49942 32.8637 9.74534 32.6641 10.0282C31.6059 11.5099 30.3422 12.7764 29.4654 13.2252C29.0724 13.4219 28.8849 13.4834 28.5524 13.508C28.1835 13.5326 28.117 13.5203 28.0021 13.4035C27.7421 13.1391 27.8812 12.6534 28.4556 11.8603C29.3324 10.6491 30.5538 9.73919 31.6241 9.49327C31.9869 9.40719 32.9181 9.40105 32.9967 9.48712Z" fill="white"/>
<path d="M54.7528 8.09137C53.7975 8.18359 53.61 8.24508 53.5133 8.50945C53.483 8.58937 53.4286 8.98285 53.3984 9.38248C53.3621 9.78211 53.3077 10.3846 53.2714 10.7228C53.2351 11.0609 53.1928 12.0815 53.1686 12.9976C53.1384 14.6146 53.1686 15.1617 53.3319 15.7335C53.4588 16.17 53.4105 16.1762 54.5835 15.5983C55.1761 15.3093 55.9259 14.9404 56.2585 14.7867L56.8511 14.5039L56.8208 14.2149C56.8027 14.0489 56.7604 12.8931 56.7241 11.645C56.6334 8.43567 56.6273 8.31885 56.5124 8.14056C56.4217 7.99915 56.3794 7.98685 56.0348 7.993C55.8292 7.99915 55.2547 8.04219 54.7528 8.09137Z" fill="white"/>
<path d="M64.2469 18.789C64.0474 18.7952 62.9892 18.8505 61.8887 18.8997C49.6078 19.4899 39.4856 20.5413 29.1759 22.2873C26.3642 22.7607 20.5593 23.8428 20.2812 23.935C20.2388 23.9535 20.3356 24.6421 20.5654 25.9701C20.7528 27.0767 20.9221 27.9867 20.9342 27.999C20.9463 28.0113 21.3877 27.9129 21.9198 27.7776C27.8577 26.2529 35.0291 24.765 40.8159 23.849C47.2677 22.8345 54.808 22.0844 63.5213 21.6049C64.4223 21.5557 65.2023 21.5127 65.2628 21.5127C65.3595 21.5127 65.3656 21.4081 65.3656 20.1293V18.746L64.9907 18.7583C64.779 18.7644 64.4465 18.7767 64.2469 18.789Z" fill="white"/>
</svg>
