<svg width="93" height="44" viewBox="0 0 93 44" fill="none" xmlns="http://www.w3.org/2000/svg">
<path d="M24.0541 8.06208C23.6792 8.17274 22.1554 8.9843 21.5386 9.40237C19.5976 10.7242 17.3845 13.0359 15.1049 16.1407C13.0127 18.9812 11.7127 21.379 10.334 24.9142C9.45726 27.1767 8.3749 30.7918 8.04233 32.5747L8 32.7715L9.48749 32.7592L10.975 32.7407L11.1745 31.757C11.5434 29.9372 12.3113 27.0291 12.783 25.6704C13.569 23.3771 15.5161 19.8112 17.1003 17.7393C17.6445 17.0322 18.358 16.2453 18.9143 15.735C19.4585 15.2431 19.779 14.9972 19.7004 15.1324C19.6702 15.1755 19.5492 15.3722 19.4344 15.5567C18.9325 16.3621 18.3218 17.9729 18.1222 19.0488C17.832 20.549 18.1101 21.9938 18.872 22.9713C19.2227 23.4263 19.5916 23.58 20.3353 23.58C20.9884 23.58 21.4056 23.4386 22.0042 23.0205C22.3852 22.7562 23.1954 21.9139 23.6006 21.3667C24.1266 20.6535 29.0487 14.2287 29.2905 13.9397C29.4235 13.7799 29.5566 13.6507 29.5929 13.6507C29.6957 13.6507 29.6473 14.0873 29.4115 15.1755C28.7161 18.3602 28.3896 20.2662 28.0993 22.9344C27.9481 24.2809 27.9481 26.9676 28.0933 27.8222C28.2868 28.9289 28.6496 29.9064 28.9942 30.2323L29.1394 30.3676L30.1794 29.3101L31.2194 28.2526L31.1227 27.9452C30.9897 27.5271 30.9413 25.197 31.032 23.8505C31.1952 21.5081 31.679 18.5877 32.592 14.4193C33.0214 12.4519 33.0516 12.2736 33.0758 11.4067C33.1181 10.0479 32.9548 9.44541 32.4106 8.93511C32.0841 8.62771 31.7636 8.52319 31.1892 8.51704C30.6873 8.51704 30.2761 8.68919 29.7077 9.13185C29.2421 9.50074 29.3631 9.34704 24.9611 14.8496C22.8749 17.4503 21.1456 19.5899 21.1153 19.6022C21.0005 19.6452 21.067 19.0857 21.2423 18.5631C21.6777 17.229 23.1773 14.7144 25.2271 11.8678C26.4062 10.2324 26.5332 9.85119 26.1765 9.05193C25.862 8.36333 25.2755 7.9883 24.5438 8.0006C24.3745 8.0006 24.1569 8.03134 24.0541 8.06208Z" fill="white"/>
<path d="M52.6494 9.13251C52.3954 9.58132 51.8391 10.8663 51.2042 12.4833C50.8777 13.3133 50.6056 14.0018 50.5935 14.0141C50.5814 14.0264 50.0009 14.1002 49.2995 14.174C48.5981 14.2478 48.0176 14.3215 48.0055 14.3338C47.9692 14.3769 47.4613 17.949 47.4915 17.9797C47.5036 17.992 48.0176 17.8936 48.6283 17.7645C49.2451 17.6354 49.753 17.5309 49.7591 17.5432C49.7651 17.5493 49.7349 17.8321 49.6865 18.1703C49.3963 20.2176 49.5897 22.1912 50.1642 23.1749C50.5814 23.8819 51.4038 24.4783 52.4196 24.798C52.988 24.9824 54.0159 25.1484 54.5541 25.1484C55.8662 25.1484 58.4724 24.589 58.8775 24.2262L59.0589 24.0602L58.4301 22.6338C58.0854 21.8469 57.771 21.1583 57.7286 21.103C57.6682 21.0169 57.6138 21.0107 57.3658 21.0722C57.2026 21.1091 56.6342 21.2444 56.1021 21.3673C55.2858 21.5579 55.056 21.5887 54.5843 21.5702C54.1187 21.5518 53.9857 21.5272 53.6834 21.3673C53.2238 21.1275 53.0061 20.8509 52.9215 20.3836C52.8368 19.9225 52.8913 18.7974 53.0364 18.035L53.1452 17.4755L52.7945 17.3034C52.595 17.205 52.4136 17.1005 52.3773 17.0575C52.3047 16.9714 53.2057 16.8177 55.8904 16.4795C56.9728 16.3381 57.91 16.2152 57.9766 16.2029C58.0975 16.1783 58.1156 16.0799 58.2366 14.8441C58.3091 14.1064 58.3635 13.5038 58.3575 13.4977C58.3454 13.4915 57.4263 13.5346 56.3137 13.5961C55.2011 13.6575 54.282 13.6944 54.2639 13.6821C54.1974 13.6084 54.8504 12.0467 55.6969 10.2576L56.1807 9.23088L55.8723 9.19399C55.6969 9.17555 54.9774 9.08947 54.2699 9.00955C53.5624 8.92347 52.9457 8.85584 52.8973 8.85584C52.8489 8.85584 52.7401 8.97881 52.6494 9.13251Z" fill="white"/>
<path d="M73.3955 10.079C71.7689 10.7983 70.5717 11.8005 70.2814 12.6981C70.1363 13.1346 70.1847 13.8601 70.3963 14.4995C70.62 15.1758 70.7893 15.5324 71.521 16.8174C72.5248 18.5757 72.7424 19.1168 72.6578 19.6517C72.5429 20.4079 71.9261 20.9981 70.5717 21.6437C70.0335 21.8957 68.7637 22.2954 67.2943 22.6643C66.8287 22.7749 66.4478 22.8794 66.4357 22.8856C66.4236 22.904 67.1432 25.4617 67.1734 25.5047C67.2036 25.5539 69.5135 25.0067 70.2814 24.7731C72.3978 24.1275 73.7764 23.402 74.6955 22.4491C75.2276 21.8957 75.5542 21.3117 75.6993 20.66C75.7839 20.2849 75.79 20.1497 75.7235 19.7623C75.5723 18.8094 75.1853 17.8749 74.369 16.4792C73.3773 14.7946 73.2685 14.4565 73.5346 13.9277C73.7522 13.4851 74.4597 12.9133 75.2881 12.5198C75.4937 12.4214 75.663 12.3169 75.663 12.2923C75.663 12.2247 74.1574 9.80848 74.1029 9.79618C74.0788 9.79004 73.7643 9.91915 73.3955 10.079Z" fill="white"/>
<path d="M82.4355 10.3926C80.9722 10.8722 79.4182 11.6837 78.5837 12.3969C78.0154 12.8888 77.3865 13.8048 77.1446 14.5057C76.9814 14.9853 76.9269 15.514 76.9935 15.9997C77.1204 16.9158 77.4288 17.629 78.2633 18.9385C79.914 21.5269 80.9843 23.5374 81.2322 24.5149C81.3713 25.0805 81.3834 25.9228 81.2564 26.3532C81.1355 26.7774 80.8513 27.1894 80.3071 27.7427C79.5573 28.4928 78.4568 29.2859 77.4167 29.8208C76.0744 30.5094 73.6919 31.2225 71.6361 31.5422C71.1765 31.616 70.7411 31.696 70.6746 31.7267C70.5718 31.7636 70.5839 31.7882 70.7956 31.8742C71.3277 32.1079 71.9444 32.2308 72.791 32.2616C73.704 32.2985 73.7101 32.3169 72.8817 32.526C72.3133 32.6674 71.3398 32.8149 70.5658 32.8702C69.8644 32.9194 69.7979 32.9748 69.7979 33.5158C69.7979 34.0261 69.9974 34.6348 70.2574 34.893C70.6988 35.3418 71.243 35.3787 72.9966 35.0713C76.3767 34.4872 79.9443 33.1469 81.7159 31.7943C83.2941 30.5893 84.3826 29.0522 84.8361 27.3861C84.9872 26.8389 85.0054 26.6852 84.9993 25.8552C84.9933 25.0744 84.9691 24.8408 84.8361 24.3366C84.4853 22.9779 83.9653 21.9265 82.623 19.8362C81.4559 18.0102 81.1476 17.4691 80.8694 16.7191C80.4945 15.7231 80.7727 15.0099 81.7885 14.3643C82.2662 14.0631 83.2579 13.6388 83.7537 13.522C83.9291 13.479 84.0621 13.4175 84.05 13.3806C84.0379 13.3437 83.8021 12.6367 83.5239 11.8067C83.2458 10.9767 83.0039 10.2819 82.9858 10.2635C82.9676 10.2389 82.7197 10.3004 82.4355 10.3926Z" fill="white"/>
<path d="M63.4786 11.0372C62.8799 11.0803 62.3418 11.1356 62.2813 11.1602C62.0939 11.2401 62.0213 11.4922 61.8097 12.7772C61.5799 14.1912 61.5738 14.1728 62.0576 14.1052C62.2088 14.0867 62.886 14.0068 63.5693 13.9269C64.8875 13.7793 64.9902 13.7547 65.0447 13.6133C65.087 13.5027 65.4438 11.3692 65.4438 11.234C65.4438 11.1787 65.4014 11.0926 65.347 11.0434C65.2382 10.9266 65.0628 10.9266 63.4786 11.0372Z" fill="white"/>
<path d="M40.652 14.4007C39.0436 14.5237 37.671 15.0279 36.4072 15.9439C34.6718 17.2043 33.4625 18.7106 33.1239 20.0325C32.5615 22.2396 33.2992 23.7029 35.2402 24.2378C35.6393 24.3423 35.8993 24.3669 36.7519 24.373C37.7254 24.373 37.804 24.3669 38.2575 24.207C39.4971 23.7644 40.906 22.6331 41.9823 21.219L42.3753 20.7088L42.4177 20.9547C42.4721 21.299 42.5991 21.5265 42.8833 21.7847L43.1251 22.006L43.5363 21.883C43.76 21.8216 44.395 21.6371 44.9452 21.4773C45.4955 21.3236 45.955 21.1822 45.9671 21.176C45.9792 21.1637 45.822 20.9731 45.6224 20.7456C44.9754 20.014 44.9633 19.9771 44.915 18.4462C44.8606 16.6202 44.7275 16.1468 44.0926 15.5074C43.2642 14.6836 42.0428 14.2901 40.652 14.4007ZM40.9967 17.4871C41.0148 17.4994 40.8637 17.7453 40.6641 18.0282C39.6059 19.5099 38.3422 20.7764 37.4654 21.2252C37.0724 21.4219 36.8849 21.4834 36.5524 21.508C36.1835 21.5326 36.117 21.5203 36.0021 21.4035C35.7421 21.1391 35.8812 20.6534 36.4556 19.8603C37.3324 18.6491 38.5538 17.7392 39.6241 17.4933C39.9869 17.4072 40.9181 17.401 40.9967 17.4871Z" fill="white"/>
<path d="M62.7528 16.0904C61.7975 16.1826 61.61 16.2441 61.5133 16.5085C61.483 16.5884 61.4286 16.9819 61.3984 17.3815C61.3621 17.7811 61.3077 18.3837 61.2714 18.7218C61.2351 19.0599 61.1928 20.0805 61.1686 20.9966C61.1384 22.6136 61.1686 23.1608 61.3319 23.7325C61.4588 24.1691 61.4105 24.1752 62.5835 23.5973C63.1761 23.3083 63.9259 22.9394 64.2585 22.7857L64.8511 22.5029L64.8208 22.2139C64.8027 22.048 64.7604 20.8921 64.7241 19.644C64.6334 16.4347 64.6273 16.3179 64.5124 16.1396C64.4217 15.9982 64.3794 15.9859 64.0348 15.992C63.8292 15.9982 63.2547 16.0412 62.7528 16.0904Z" fill="white"/>
<path d="M72.2469 26.789C72.0474 26.7952 70.9892 26.8505 69.8887 26.8997C57.6078 27.4899 47.4856 28.5413 37.1759 30.2873C34.3642 30.7607 28.5593 31.8428 28.2812 31.935C28.2388 31.9535 28.3356 32.6421 28.5654 33.9701C28.7528 35.0767 28.9221 35.9867 28.9342 35.999C28.9463 36.0113 29.3877 35.9129 29.9198 35.7776C35.8577 34.2529 43.0291 32.765 48.8159 31.849C55.2677 30.8345 62.808 30.0844 71.5213 29.6049C72.4223 29.5557 73.2023 29.5127 73.2628 29.5127C73.3595 29.5127 73.3656 29.4081 73.3656 28.1293V26.746L72.9907 26.7583C72.779 26.7644 72.4465 26.7767 72.2469 26.789Z" fill="white"/>
</svg>
